<mxfile host="app.diagrams.net" modified="2023-04-28T09:41:52.463Z" agent="Mozilla/5.0 (Windows NT 10.0; Win64; x64) AppleWebKit/537.36 (KHTML, like Gecko) Chrome/112.0.0.0 Safari/537.36" etag="_RdT8XftNNqn963_Ysgh" version="21.2.3" type="github" pages="3">
  <diagram id="C5RBs43oDa-KdzZeNtuy" name="Page-1">
    <mxGraphModel dx="1260" dy="695" grid="1" gridSize="10" guides="1" tooltips="1" connect="1" arrows="1" fold="1" page="1" pageScale="1" pageWidth="827" pageHeight="1169" math="0" shadow="0">
      <root>
        <mxCell id="WIyWlLk6GJQsqaUBKTNV-0" />
        <mxCell id="WIyWlLk6GJQsqaUBKTNV-1" parent="WIyWlLk6GJQsqaUBKTNV-0" />
        <mxCell id="zkfFHV4jXpPFQw0GAbJ--0" value="Person" style="swimlane;fontStyle=2;align=center;verticalAlign=top;childLayout=stackLayout;horizontal=1;startSize=26;horizontalStack=0;resizeParent=1;resizeLast=0;collapsible=1;marginBottom=0;rounded=0;shadow=0;strokeWidth=1;" parent="WIyWlLk6GJQsqaUBKTNV-1" vertex="1">
          <mxGeometry x="220" y="120" width="160" height="138" as="geometry">
            <mxRectangle x="230" y="140" width="160" height="26" as="alternateBounds" />
          </mxGeometry>
        </mxCell>
        <mxCell id="zkfFHV4jXpPFQw0GAbJ--1" value="Name" style="text;align=left;verticalAlign=top;spacingLeft=4;spacingRight=4;overflow=hidden;rotatable=0;points=[[0,0.5],[1,0.5]];portConstraint=eastwest;" parent="zkfFHV4jXpPFQw0GAbJ--0" vertex="1">
          <mxGeometry y="26" width="160" height="26" as="geometry" />
        </mxCell>
        <mxCell id="zkfFHV4jXpPFQw0GAbJ--2" value="Phone Number" style="text;align=left;verticalAlign=top;spacingLeft=4;spacingRight=4;overflow=hidden;rotatable=0;points=[[0,0.5],[1,0.5]];portConstraint=eastwest;rounded=0;shadow=0;html=0;" parent="zkfFHV4jXpPFQw0GAbJ--0" vertex="1">
          <mxGeometry y="52" width="160" height="26" as="geometry" />
        </mxCell>
        <mxCell id="zkfFHV4jXpPFQw0GAbJ--3" value="Email Address" style="text;align=left;verticalAlign=top;spacingLeft=4;spacingRight=4;overflow=hidden;rotatable=0;points=[[0,0.5],[1,0.5]];portConstraint=eastwest;rounded=0;shadow=0;html=0;" parent="zkfFHV4jXpPFQw0GAbJ--0" vertex="1">
          <mxGeometry y="78" width="160" height="26" as="geometry" />
        </mxCell>
        <mxCell id="zkfFHV4jXpPFQw0GAbJ--4" value="" style="line;html=1;strokeWidth=1;align=left;verticalAlign=middle;spacingTop=-1;spacingLeft=3;spacingRight=3;rotatable=0;labelPosition=right;points=[];portConstraint=eastwest;" parent="zkfFHV4jXpPFQw0GAbJ--0" vertex="1">
          <mxGeometry y="104" width="160" height="8" as="geometry" />
        </mxCell>
        <mxCell id="zkfFHV4jXpPFQw0GAbJ--5" value="Purchase Parking Pass" style="text;align=left;verticalAlign=top;spacingLeft=4;spacingRight=4;overflow=hidden;rotatable=0;points=[[0,0.5],[1,0.5]];portConstraint=eastwest;" parent="zkfFHV4jXpPFQw0GAbJ--0" vertex="1">
          <mxGeometry y="112" width="160" height="26" as="geometry" />
        </mxCell>
        <mxCell id="zkfFHV4jXpPFQw0GAbJ--6" value="Student" style="swimlane;fontStyle=0;align=center;verticalAlign=top;childLayout=stackLayout;horizontal=1;startSize=26;horizontalStack=0;resizeParent=1;resizeLast=0;collapsible=1;marginBottom=0;rounded=0;shadow=0;strokeWidth=1;" parent="WIyWlLk6GJQsqaUBKTNV-1" vertex="1">
          <mxGeometry x="120" y="360" width="160" height="138" as="geometry">
            <mxRectangle x="130" y="380" width="160" height="26" as="alternateBounds" />
          </mxGeometry>
        </mxCell>
        <mxCell id="zkfFHV4jXpPFQw0GAbJ--7" value="Student Number" style="text;align=left;verticalAlign=top;spacingLeft=4;spacingRight=4;overflow=hidden;rotatable=0;points=[[0,0.5],[1,0.5]];portConstraint=eastwest;" parent="zkfFHV4jXpPFQw0GAbJ--6" vertex="1">
          <mxGeometry y="26" width="160" height="26" as="geometry" />
        </mxCell>
        <mxCell id="zkfFHV4jXpPFQw0GAbJ--8" value="Average Mark" style="text;align=left;verticalAlign=top;spacingLeft=4;spacingRight=4;overflow=hidden;rotatable=0;points=[[0,0.5],[1,0.5]];portConstraint=eastwest;rounded=0;shadow=0;html=0;" parent="zkfFHV4jXpPFQw0GAbJ--6" vertex="1">
          <mxGeometry y="52" width="160" height="26" as="geometry" />
        </mxCell>
        <mxCell id="zkfFHV4jXpPFQw0GAbJ--9" value="" style="line;html=1;strokeWidth=1;align=left;verticalAlign=middle;spacingTop=-1;spacingLeft=3;spacingRight=3;rotatable=0;labelPosition=right;points=[];portConstraint=eastwest;" parent="zkfFHV4jXpPFQw0GAbJ--6" vertex="1">
          <mxGeometry y="78" width="160" height="8" as="geometry" />
        </mxCell>
        <mxCell id="zkfFHV4jXpPFQw0GAbJ--10" value="Is Eligible To Enroll" style="text;align=left;verticalAlign=top;spacingLeft=4;spacingRight=4;overflow=hidden;rotatable=0;points=[[0,0.5],[1,0.5]];portConstraint=eastwest;fontStyle=4" parent="zkfFHV4jXpPFQw0GAbJ--6" vertex="1">
          <mxGeometry y="86" width="160" height="26" as="geometry" />
        </mxCell>
        <mxCell id="zkfFHV4jXpPFQw0GAbJ--11" value="Get Seminars Taken" style="text;align=left;verticalAlign=top;spacingLeft=4;spacingRight=4;overflow=hidden;rotatable=0;points=[[0,0.5],[1,0.5]];portConstraint=eastwest;" parent="zkfFHV4jXpPFQw0GAbJ--6" vertex="1">
          <mxGeometry y="112" width="160" height="26" as="geometry" />
        </mxCell>
        <mxCell id="zkfFHV4jXpPFQw0GAbJ--12" value="" style="endArrow=block;endSize=10;endFill=0;shadow=0;strokeWidth=1;rounded=0;edgeStyle=elbowEdgeStyle;elbow=vertical;" parent="WIyWlLk6GJQsqaUBKTNV-1" source="zkfFHV4jXpPFQw0GAbJ--6" target="zkfFHV4jXpPFQw0GAbJ--0" edge="1">
          <mxGeometry width="160" relative="1" as="geometry">
            <mxPoint x="200" y="203" as="sourcePoint" />
            <mxPoint x="200" y="203" as="targetPoint" />
          </mxGeometry>
        </mxCell>
        <mxCell id="zkfFHV4jXpPFQw0GAbJ--13" value="Professor" style="swimlane;fontStyle=0;align=center;verticalAlign=top;childLayout=stackLayout;horizontal=1;startSize=26;horizontalStack=0;resizeParent=1;resizeLast=0;collapsible=1;marginBottom=0;rounded=0;shadow=0;strokeWidth=1;" parent="WIyWlLk6GJQsqaUBKTNV-1" vertex="1">
          <mxGeometry x="330" y="360" width="160" height="70" as="geometry">
            <mxRectangle x="340" y="380" width="170" height="26" as="alternateBounds" />
          </mxGeometry>
        </mxCell>
        <mxCell id="zkfFHV4jXpPFQw0GAbJ--14" value="Salary" style="text;align=left;verticalAlign=top;spacingLeft=4;spacingRight=4;overflow=hidden;rotatable=0;points=[[0,0.5],[1,0.5]];portConstraint=eastwest;" parent="zkfFHV4jXpPFQw0GAbJ--13" vertex="1">
          <mxGeometry y="26" width="160" height="26" as="geometry" />
        </mxCell>
        <mxCell id="zkfFHV4jXpPFQw0GAbJ--15" value="" style="line;html=1;strokeWidth=1;align=left;verticalAlign=middle;spacingTop=-1;spacingLeft=3;spacingRight=3;rotatable=0;labelPosition=right;points=[];portConstraint=eastwest;" parent="zkfFHV4jXpPFQw0GAbJ--13" vertex="1">
          <mxGeometry y="52" width="160" height="8" as="geometry" />
        </mxCell>
        <mxCell id="zkfFHV4jXpPFQw0GAbJ--16" value="" style="endArrow=block;endSize=10;endFill=0;shadow=0;strokeWidth=1;rounded=0;edgeStyle=elbowEdgeStyle;elbow=vertical;" parent="WIyWlLk6GJQsqaUBKTNV-1" source="zkfFHV4jXpPFQw0GAbJ--13" target="zkfFHV4jXpPFQw0GAbJ--0" edge="1">
          <mxGeometry width="160" relative="1" as="geometry">
            <mxPoint x="210" y="373" as="sourcePoint" />
            <mxPoint x="310" y="271" as="targetPoint" />
          </mxGeometry>
        </mxCell>
        <mxCell id="zkfFHV4jXpPFQw0GAbJ--17" value="Address" style="swimlane;fontStyle=0;align=center;verticalAlign=top;childLayout=stackLayout;horizontal=1;startSize=26;horizontalStack=0;resizeParent=1;resizeLast=0;collapsible=1;marginBottom=0;rounded=0;shadow=0;strokeWidth=1;" parent="WIyWlLk6GJQsqaUBKTNV-1" vertex="1">
          <mxGeometry x="508" y="120" width="160" height="216" as="geometry">
            <mxRectangle x="550" y="140" width="160" height="26" as="alternateBounds" />
          </mxGeometry>
        </mxCell>
        <mxCell id="zkfFHV4jXpPFQw0GAbJ--18" value="Street" style="text;align=left;verticalAlign=top;spacingLeft=4;spacingRight=4;overflow=hidden;rotatable=0;points=[[0,0.5],[1,0.5]];portConstraint=eastwest;" parent="zkfFHV4jXpPFQw0GAbJ--17" vertex="1">
          <mxGeometry y="26" width="160" height="26" as="geometry" />
        </mxCell>
        <mxCell id="zkfFHV4jXpPFQw0GAbJ--19" value="City" style="text;align=left;verticalAlign=top;spacingLeft=4;spacingRight=4;overflow=hidden;rotatable=0;points=[[0,0.5],[1,0.5]];portConstraint=eastwest;rounded=0;shadow=0;html=0;" parent="zkfFHV4jXpPFQw0GAbJ--17" vertex="1">
          <mxGeometry y="52" width="160" height="26" as="geometry" />
        </mxCell>
        <mxCell id="zkfFHV4jXpPFQw0GAbJ--20" value="State" style="text;align=left;verticalAlign=top;spacingLeft=4;spacingRight=4;overflow=hidden;rotatable=0;points=[[0,0.5],[1,0.5]];portConstraint=eastwest;rounded=0;shadow=0;html=0;" parent="zkfFHV4jXpPFQw0GAbJ--17" vertex="1">
          <mxGeometry y="78" width="160" height="26" as="geometry" />
        </mxCell>
        <mxCell id="zkfFHV4jXpPFQw0GAbJ--21" value="Postal Code" style="text;align=left;verticalAlign=top;spacingLeft=4;spacingRight=4;overflow=hidden;rotatable=0;points=[[0,0.5],[1,0.5]];portConstraint=eastwest;rounded=0;shadow=0;html=0;" parent="zkfFHV4jXpPFQw0GAbJ--17" vertex="1">
          <mxGeometry y="104" width="160" height="26" as="geometry" />
        </mxCell>
        <mxCell id="zkfFHV4jXpPFQw0GAbJ--22" value="Country" style="text;align=left;verticalAlign=top;spacingLeft=4;spacingRight=4;overflow=hidden;rotatable=0;points=[[0,0.5],[1,0.5]];portConstraint=eastwest;rounded=0;shadow=0;html=0;" parent="zkfFHV4jXpPFQw0GAbJ--17" vertex="1">
          <mxGeometry y="130" width="160" height="26" as="geometry" />
        </mxCell>
        <mxCell id="zkfFHV4jXpPFQw0GAbJ--23" value="" style="line;html=1;strokeWidth=1;align=left;verticalAlign=middle;spacingTop=-1;spacingLeft=3;spacingRight=3;rotatable=0;labelPosition=right;points=[];portConstraint=eastwest;" parent="zkfFHV4jXpPFQw0GAbJ--17" vertex="1">
          <mxGeometry y="156" width="160" height="8" as="geometry" />
        </mxCell>
        <mxCell id="zkfFHV4jXpPFQw0GAbJ--24" value="Validate" style="text;align=left;verticalAlign=top;spacingLeft=4;spacingRight=4;overflow=hidden;rotatable=0;points=[[0,0.5],[1,0.5]];portConstraint=eastwest;" parent="zkfFHV4jXpPFQw0GAbJ--17" vertex="1">
          <mxGeometry y="164" width="160" height="26" as="geometry" />
        </mxCell>
        <mxCell id="zkfFHV4jXpPFQw0GAbJ--25" value="Output As Label" style="text;align=left;verticalAlign=top;spacingLeft=4;spacingRight=4;overflow=hidden;rotatable=0;points=[[0,0.5],[1,0.5]];portConstraint=eastwest;" parent="zkfFHV4jXpPFQw0GAbJ--17" vertex="1">
          <mxGeometry y="190" width="160" height="26" as="geometry" />
        </mxCell>
        <mxCell id="zkfFHV4jXpPFQw0GAbJ--26" value="" style="endArrow=open;shadow=0;strokeWidth=1;rounded=0;endFill=1;edgeStyle=elbowEdgeStyle;elbow=vertical;" parent="WIyWlLk6GJQsqaUBKTNV-1" source="zkfFHV4jXpPFQw0GAbJ--0" target="zkfFHV4jXpPFQw0GAbJ--17" edge="1">
          <mxGeometry x="0.5" y="41" relative="1" as="geometry">
            <mxPoint x="380" y="192" as="sourcePoint" />
            <mxPoint x="540" y="192" as="targetPoint" />
            <mxPoint x="-40" y="32" as="offset" />
          </mxGeometry>
        </mxCell>
        <mxCell id="zkfFHV4jXpPFQw0GAbJ--27" value="0..1" style="resizable=0;align=left;verticalAlign=bottom;labelBackgroundColor=none;fontSize=12;" parent="zkfFHV4jXpPFQw0GAbJ--26" connectable="0" vertex="1">
          <mxGeometry x="-1" relative="1" as="geometry">
            <mxPoint y="4" as="offset" />
          </mxGeometry>
        </mxCell>
        <mxCell id="zkfFHV4jXpPFQw0GAbJ--28" value="1" style="resizable=0;align=right;verticalAlign=bottom;labelBackgroundColor=none;fontSize=12;" parent="zkfFHV4jXpPFQw0GAbJ--26" connectable="0" vertex="1">
          <mxGeometry x="1" relative="1" as="geometry">
            <mxPoint x="-7" y="4" as="offset" />
          </mxGeometry>
        </mxCell>
        <mxCell id="zkfFHV4jXpPFQw0GAbJ--29" value="lives at" style="text;html=1;resizable=0;points=[];;align=center;verticalAlign=middle;labelBackgroundColor=none;rounded=0;shadow=0;strokeWidth=1;fontSize=12;" parent="zkfFHV4jXpPFQw0GAbJ--26" vertex="1" connectable="0">
          <mxGeometry x="0.5" y="49" relative="1" as="geometry">
            <mxPoint x="-38" y="40" as="offset" />
          </mxGeometry>
        </mxCell>
      </root>
    </mxGraphModel>
  </diagram>
  <diagram id="diHmMQ7K9qjNeSAkiqlH" name="第 2 页">
    <mxGraphModel dx="1260" dy="695" grid="1" gridSize="10" guides="1" tooltips="1" connect="1" arrows="1" fold="1" page="1" pageScale="1" pageWidth="827" pageHeight="1169" math="0" shadow="0">
      <root>
        <mxCell id="0" />
        <mxCell id="1" parent="0" />
        <mxCell id="t7bWghhwX8KJBcZdShjg-97" style="edgeStyle=orthogonalEdgeStyle;rounded=0;orthogonalLoop=1;jettySize=auto;html=1;entryX=0.5;entryY=0;entryDx=0;entryDy=0;" parent="1" source="zR6GvW5vZxTVT4qoo_RN-1" target="t7bWghhwX8KJBcZdShjg-79" edge="1">
          <mxGeometry relative="1" as="geometry" />
        </mxCell>
        <mxCell id="t7bWghhwX8KJBcZdShjg-102" style="edgeStyle=orthogonalEdgeStyle;rounded=0;orthogonalLoop=1;jettySize=auto;html=1;entryX=0.5;entryY=0;entryDx=0;entryDy=0;" parent="1" source="zR6GvW5vZxTVT4qoo_RN-1" target="t7bWghhwX8KJBcZdShjg-68" edge="1">
          <mxGeometry relative="1" as="geometry" />
        </mxCell>
        <mxCell id="zR6GvW5vZxTVT4qoo_RN-1" value="網站入口" style="rounded=0;whiteSpace=wrap;html=1;" parent="1" vertex="1">
          <mxGeometry x="374" y="80" width="120" height="60" as="geometry" />
        </mxCell>
        <mxCell id="t7bWghhwX8KJBcZdShjg-135" style="edgeStyle=orthogonalEdgeStyle;shape=connector;rounded=0;orthogonalLoop=1;jettySize=auto;html=1;entryX=0.5;entryY=0;entryDx=0;entryDy=0;labelBackgroundColor=default;strokeColor=default;fontFamily=Helvetica;fontSize=11;fontColor=default;startArrow=none;startFill=0;endArrow=none;endFill=0;" parent="1" source="zR6GvW5vZxTVT4qoo_RN-2" target="zR6GvW5vZxTVT4qoo_RN-4" edge="1">
          <mxGeometry relative="1" as="geometry">
            <Array as="points">
              <mxPoint x="670" y="270" />
              <mxPoint x="585" y="270" />
            </Array>
          </mxGeometry>
        </mxCell>
        <mxCell id="t7bWghhwX8KJBcZdShjg-136" style="edgeStyle=orthogonalEdgeStyle;shape=connector;rounded=0;orthogonalLoop=1;jettySize=auto;html=1;entryX=0.5;entryY=0;entryDx=0;entryDy=0;labelBackgroundColor=default;strokeColor=default;fontFamily=Helvetica;fontSize=11;fontColor=default;startArrow=none;startFill=0;endArrow=none;endFill=0;" parent="1" source="zR6GvW5vZxTVT4qoo_RN-2" target="t7bWghhwX8KJBcZdShjg-116" edge="1">
          <mxGeometry relative="1" as="geometry" />
        </mxCell>
        <mxCell id="t7bWghhwX8KJBcZdShjg-137" style="edgeStyle=orthogonalEdgeStyle;shape=connector;rounded=0;orthogonalLoop=1;jettySize=auto;html=1;entryX=0.5;entryY=0;entryDx=0;entryDy=0;labelBackgroundColor=default;strokeColor=default;fontFamily=Helvetica;fontSize=11;fontColor=default;startArrow=none;startFill=0;endArrow=none;endFill=0;" parent="1" source="zR6GvW5vZxTVT4qoo_RN-2" target="t7bWghhwX8KJBcZdShjg-108" edge="1">
          <mxGeometry relative="1" as="geometry">
            <Array as="points">
              <mxPoint x="670" y="270" />
              <mxPoint x="757" y="270" />
            </Array>
          </mxGeometry>
        </mxCell>
        <mxCell id="zR6GvW5vZxTVT4qoo_RN-2" value="消費者" style="rounded=0;whiteSpace=wrap;html=1;" parent="1" vertex="1">
          <mxGeometry x="610" y="110" width="120" height="60" as="geometry" />
        </mxCell>
        <mxCell id="t7bWghhwX8KJBcZdShjg-134" style="edgeStyle=orthogonalEdgeStyle;shape=connector;rounded=0;orthogonalLoop=1;jettySize=auto;html=1;entryX=0.5;entryY=0;entryDx=0;entryDy=0;labelBackgroundColor=default;strokeColor=default;fontFamily=Helvetica;fontSize=11;fontColor=default;startArrow=none;startFill=0;endArrow=classic;endFill=1;" parent="1" source="zR6GvW5vZxTVT4qoo_RN-4" target="t7bWghhwX8KJBcZdShjg-122" edge="1">
          <mxGeometry relative="1" as="geometry" />
        </mxCell>
        <mxCell id="zR6GvW5vZxTVT4qoo_RN-4" value="外帶" style="rounded=0;whiteSpace=wrap;html=1;" parent="1" vertex="1">
          <mxGeometry x="550" y="305" width="70" height="33" as="geometry" />
        </mxCell>
        <mxCell id="zR6GvW5vZxTVT4qoo_RN-15" value="後臺管理" style="swimlane;fontStyle=0;childLayout=stackLayout;horizontal=1;startSize=26;fillColor=none;horizontalStack=0;resizeParent=1;resizeParentMax=0;resizeLast=0;collapsible=1;marginBottom=0;whiteSpace=wrap;html=1;" parent="1" vertex="1">
          <mxGeometry x="394" y="409" width="80" height="260" as="geometry">
            <mxRectangle x="394" y="613" width="90" height="30" as="alternateBounds" />
          </mxGeometry>
        </mxCell>
        <mxCell id="t7bWghhwX8KJBcZdShjg-66" value="會員資料" style="text;strokeColor=none;fillColor=none;align=left;verticalAlign=top;spacingLeft=4;spacingRight=4;overflow=hidden;rotatable=0;points=[[0,0.5],[1,0.5]];portConstraint=eastwest;whiteSpace=wrap;html=1;" parent="zR6GvW5vZxTVT4qoo_RN-15" vertex="1">
          <mxGeometry y="26" width="80" height="26" as="geometry" />
        </mxCell>
        <mxCell id="zR6GvW5vZxTVT4qoo_RN-16" value="訂位管理" style="text;strokeColor=none;fillColor=none;align=left;verticalAlign=top;spacingLeft=4;spacingRight=4;overflow=hidden;rotatable=0;points=[[0,0.5],[1,0.5]];portConstraint=eastwest;whiteSpace=wrap;html=1;" parent="zR6GvW5vZxTVT4qoo_RN-15" vertex="1">
          <mxGeometry y="52" width="80" height="26" as="geometry" />
        </mxCell>
        <mxCell id="t7bWghhwX8KJBcZdShjg-106" style="edgeStyle=orthogonalEdgeStyle;rounded=0;orthogonalLoop=1;jettySize=auto;html=1;startArrow=none;startFill=0;endArrow=none;endFill=0;" parent="zR6GvW5vZxTVT4qoo_RN-15" source="zR6GvW5vZxTVT4qoo_RN-17" edge="1">
          <mxGeometry relative="1" as="geometry">
            <mxPoint x="-54" y="91" as="targetPoint" />
          </mxGeometry>
        </mxCell>
        <mxCell id="zR6GvW5vZxTVT4qoo_RN-17" value="及時訂單" style="text;strokeColor=none;fillColor=none;align=left;verticalAlign=top;spacingLeft=4;spacingRight=4;overflow=hidden;rotatable=0;points=[[0,0.5],[1,0.5]];portConstraint=eastwest;whiteSpace=wrap;html=1;" parent="zR6GvW5vZxTVT4qoo_RN-15" vertex="1">
          <mxGeometry y="78" width="80" height="26" as="geometry" />
        </mxCell>
        <mxCell id="t7bWghhwX8KJBcZdShjg-53" value="處理中訂單" style="text;strokeColor=none;fillColor=none;align=left;verticalAlign=top;spacingLeft=4;spacingRight=4;overflow=hidden;rotatable=0;points=[[0,0.5],[1,0.5]];portConstraint=eastwest;whiteSpace=wrap;html=1;" parent="zR6GvW5vZxTVT4qoo_RN-15" vertex="1">
          <mxGeometry y="104" width="80" height="26" as="geometry" />
        </mxCell>
        <mxCell id="zR6GvW5vZxTVT4qoo_RN-18" value="訂單明細" style="text;strokeColor=none;fillColor=none;align=left;verticalAlign=top;spacingLeft=4;spacingRight=4;overflow=hidden;rotatable=0;points=[[0,0.5],[1,0.5]];portConstraint=eastwest;whiteSpace=wrap;html=1;" parent="zR6GvW5vZxTVT4qoo_RN-15" vertex="1">
          <mxGeometry y="130" width="80" height="26" as="geometry" />
        </mxCell>
        <mxCell id="t7bWghhwX8KJBcZdShjg-50" value="菜單管理" style="text;strokeColor=none;fillColor=none;align=left;verticalAlign=top;spacingLeft=4;spacingRight=4;overflow=hidden;rotatable=0;points=[[0,0.5],[1,0.5]];portConstraint=eastwest;whiteSpace=wrap;html=1;" parent="zR6GvW5vZxTVT4qoo_RN-15" vertex="1">
          <mxGeometry y="156" width="80" height="26" as="geometry" />
        </mxCell>
        <mxCell id="t7bWghhwX8KJBcZdShjg-88" value="顧客資訊" style="text;strokeColor=none;fillColor=none;align=left;verticalAlign=top;spacingLeft=4;spacingRight=4;overflow=hidden;rotatable=0;points=[[0,0.5],[1,0.5]];portConstraint=eastwest;whiteSpace=wrap;html=1;" parent="zR6GvW5vZxTVT4qoo_RN-15" vertex="1">
          <mxGeometry y="182" width="80" height="26" as="geometry" />
        </mxCell>
        <mxCell id="t7bWghhwX8KJBcZdShjg-107" value="桌位管理" style="text;strokeColor=none;fillColor=none;align=left;verticalAlign=top;spacingLeft=4;spacingRight=4;overflow=hidden;rotatable=0;points=[[0,0.5],[1,0.5]];portConstraint=eastwest;whiteSpace=wrap;html=1;" parent="zR6GvW5vZxTVT4qoo_RN-15" vertex="1">
          <mxGeometry y="208" width="80" height="26" as="geometry" />
        </mxCell>
        <mxCell id="xQNgTAcxKqtw9KDlEkf2-1" value="統計資料" style="text;strokeColor=none;fillColor=none;align=left;verticalAlign=top;spacingLeft=4;spacingRight=4;overflow=hidden;rotatable=0;points=[[0,0.5],[1,0.5]];portConstraint=eastwest;whiteSpace=wrap;html=1;" parent="zR6GvW5vZxTVT4qoo_RN-15" vertex="1">
          <mxGeometry y="234" width="80" height="26" as="geometry" />
        </mxCell>
        <mxCell id="t7bWghhwX8KJBcZdShjg-1" value="訂位管理" style="swimlane;fontStyle=0;childLayout=stackLayout;horizontal=1;startSize=26;fillColor=none;horizontalStack=0;resizeParent=1;resizeParentMax=0;resizeLast=0;collapsible=1;marginBottom=0;whiteSpace=wrap;html=1;" parent="1" vertex="1">
          <mxGeometry x="100" y="379" width="80" height="182" as="geometry">
            <mxRectangle x="100" y="379" width="90" height="30" as="alternateBounds" />
          </mxGeometry>
        </mxCell>
        <mxCell id="t7bWghhwX8KJBcZdShjg-2" value="姓名" style="text;strokeColor=none;fillColor=none;align=left;verticalAlign=top;spacingLeft=4;spacingRight=4;overflow=hidden;rotatable=0;points=[[0,0.5],[1,0.5]];portConstraint=eastwest;whiteSpace=wrap;html=1;" parent="t7bWghhwX8KJBcZdShjg-1" vertex="1">
          <mxGeometry y="26" width="80" height="26" as="geometry" />
        </mxCell>
        <mxCell id="t7bWghhwX8KJBcZdShjg-3" value="電話" style="text;strokeColor=none;fillColor=none;align=left;verticalAlign=top;spacingLeft=4;spacingRight=4;overflow=hidden;rotatable=0;points=[[0,0.5],[1,0.5]];portConstraint=eastwest;whiteSpace=wrap;html=1;" parent="t7bWghhwX8KJBcZdShjg-1" vertex="1">
          <mxGeometry y="52" width="80" height="26" as="geometry" />
        </mxCell>
        <mxCell id="t7bWghhwX8KJBcZdShjg-4" value="人數&lt;br&gt;" style="text;strokeColor=none;fillColor=none;align=left;verticalAlign=top;spacingLeft=4;spacingRight=4;overflow=hidden;rotatable=0;points=[[0,0.5],[1,0.5]];portConstraint=eastwest;whiteSpace=wrap;html=1;" parent="t7bWghhwX8KJBcZdShjg-1" vertex="1">
          <mxGeometry y="78" width="80" height="26" as="geometry" />
        </mxCell>
        <mxCell id="t7bWghhwX8KJBcZdShjg-19" value="Email" style="text;strokeColor=none;fillColor=none;align=left;verticalAlign=top;spacingLeft=4;spacingRight=4;overflow=hidden;rotatable=0;points=[[0,0.5],[1,0.5]];portConstraint=eastwest;whiteSpace=wrap;html=1;" parent="t7bWghhwX8KJBcZdShjg-1" vertex="1">
          <mxGeometry y="104" width="80" height="26" as="geometry" />
        </mxCell>
        <mxCell id="t7bWghhwX8KJBcZdShjg-20" value="訂位日期" style="text;strokeColor=none;fillColor=none;align=left;verticalAlign=top;spacingLeft=4;spacingRight=4;overflow=hidden;rotatable=0;points=[[0,0.5],[1,0.5]];portConstraint=eastwest;whiteSpace=wrap;html=1;" parent="t7bWghhwX8KJBcZdShjg-1" vertex="1">
          <mxGeometry y="130" width="80" height="26" as="geometry" />
        </mxCell>
        <mxCell id="t7bWghhwX8KJBcZdShjg-21" value="訂位時間" style="text;strokeColor=none;fillColor=none;align=left;verticalAlign=top;spacingLeft=4;spacingRight=4;overflow=hidden;rotatable=0;points=[[0,0.5],[1,0.5]];portConstraint=eastwest;whiteSpace=wrap;html=1;" parent="t7bWghhwX8KJBcZdShjg-1" vertex="1">
          <mxGeometry y="156" width="80" height="26" as="geometry" />
        </mxCell>
        <mxCell id="t7bWghhwX8KJBcZdShjg-26" value="及時訂單/&lt;br&gt;處理中訂單" style="swimlane;fontStyle=0;childLayout=stackLayout;horizontal=1;startSize=44;fillColor=none;horizontalStack=0;resizeParent=1;resizeParentMax=0;resizeLast=0;collapsible=1;marginBottom=0;whiteSpace=wrap;html=1;" parent="1" vertex="1">
          <mxGeometry x="200" y="406" width="90" height="200" as="geometry">
            <mxRectangle x="200" y="406" width="100" height="30" as="alternateBounds" />
          </mxGeometry>
        </mxCell>
        <mxCell id="t7bWghhwX8KJBcZdShjg-27" value="訂單編號" style="text;strokeColor=none;fillColor=none;align=left;verticalAlign=top;spacingLeft=4;spacingRight=4;overflow=hidden;rotatable=0;points=[[0,0.5],[1,0.5]];portConstraint=eastwest;whiteSpace=wrap;html=1;" parent="t7bWghhwX8KJBcZdShjg-26" vertex="1">
          <mxGeometry y="44" width="90" height="26" as="geometry" />
        </mxCell>
        <mxCell id="t7bWghhwX8KJBcZdShjg-36" value="品項內容" style="text;strokeColor=none;fillColor=none;align=left;verticalAlign=top;spacingLeft=4;spacingRight=4;overflow=hidden;rotatable=0;points=[[0,0.5],[1,0.5]];portConstraint=eastwest;whiteSpace=wrap;html=1;" parent="t7bWghhwX8KJBcZdShjg-26" vertex="1">
          <mxGeometry y="70" width="90" height="26" as="geometry" />
        </mxCell>
        <mxCell id="t7bWghhwX8KJBcZdShjg-28" value="人數" style="text;strokeColor=none;fillColor=none;align=left;verticalAlign=top;spacingLeft=4;spacingRight=4;overflow=hidden;rotatable=0;points=[[0,0.5],[1,0.5]];portConstraint=eastwest;whiteSpace=wrap;html=1;" parent="t7bWghhwX8KJBcZdShjg-26" vertex="1">
          <mxGeometry y="96" width="90" height="26" as="geometry" />
        </mxCell>
        <mxCell id="t7bWghhwX8KJBcZdShjg-29" value="桌號" style="text;strokeColor=none;fillColor=none;align=left;verticalAlign=top;spacingLeft=4;spacingRight=4;overflow=hidden;rotatable=0;points=[[0,0.5],[1,0.5]];portConstraint=eastwest;whiteSpace=wrap;html=1;" parent="t7bWghhwX8KJBcZdShjg-26" vertex="1">
          <mxGeometry y="122" width="90" height="26" as="geometry" />
        </mxCell>
        <mxCell id="t7bWghhwX8KJBcZdShjg-30" value="訂單日期" style="text;strokeColor=none;fillColor=none;align=left;verticalAlign=top;spacingLeft=4;spacingRight=4;overflow=hidden;rotatable=0;points=[[0,0.5],[1,0.5]];portConstraint=eastwest;whiteSpace=wrap;html=1;" parent="t7bWghhwX8KJBcZdShjg-26" vertex="1">
          <mxGeometry y="148" width="90" height="26" as="geometry" />
        </mxCell>
        <mxCell id="t7bWghhwX8KJBcZdShjg-31" value="外帶/內用" style="text;strokeColor=none;fillColor=none;align=left;verticalAlign=top;spacingLeft=4;spacingRight=4;overflow=hidden;rotatable=0;points=[[0,0.5],[1,0.5]];portConstraint=eastwest;whiteSpace=wrap;html=1;" parent="t7bWghhwX8KJBcZdShjg-26" vertex="1">
          <mxGeometry y="174" width="90" height="26" as="geometry" />
        </mxCell>
        <mxCell id="t7bWghhwX8KJBcZdShjg-38" value="訂單明細" style="swimlane;fontStyle=0;childLayout=stackLayout;horizontal=1;startSize=26;fillColor=none;horizontalStack=0;resizeParent=1;resizeParentMax=0;resizeLast=0;collapsible=1;marginBottom=0;whiteSpace=wrap;html=1;" parent="1" vertex="1">
          <mxGeometry y="606" width="80" height="156" as="geometry">
            <mxRectangle y="606" width="90" height="30" as="alternateBounds" />
          </mxGeometry>
        </mxCell>
        <mxCell id="t7bWghhwX8KJBcZdShjg-39" value="訂單編號" style="text;strokeColor=none;fillColor=none;align=left;verticalAlign=top;spacingLeft=4;spacingRight=4;overflow=hidden;rotatable=0;points=[[0,0.5],[1,0.5]];portConstraint=eastwest;whiteSpace=wrap;html=1;" parent="t7bWghhwX8KJBcZdShjg-38" vertex="1">
          <mxGeometry y="26" width="80" height="26" as="geometry" />
        </mxCell>
        <mxCell id="t7bWghhwX8KJBcZdShjg-40" value="品項內容" style="text;strokeColor=none;fillColor=none;align=left;verticalAlign=top;spacingLeft=4;spacingRight=4;overflow=hidden;rotatable=0;points=[[0,0.5],[1,0.5]];portConstraint=eastwest;whiteSpace=wrap;html=1;" parent="t7bWghhwX8KJBcZdShjg-38" vertex="1">
          <mxGeometry y="52" width="80" height="26" as="geometry" />
        </mxCell>
        <mxCell id="t7bWghhwX8KJBcZdShjg-41" value="數量" style="text;strokeColor=none;fillColor=none;align=left;verticalAlign=top;spacingLeft=4;spacingRight=4;overflow=hidden;rotatable=0;points=[[0,0.5],[1,0.5]];portConstraint=eastwest;whiteSpace=wrap;html=1;" parent="t7bWghhwX8KJBcZdShjg-38" vertex="1">
          <mxGeometry y="78" width="80" height="26" as="geometry" />
        </mxCell>
        <mxCell id="t7bWghhwX8KJBcZdShjg-42" value="單價" style="text;strokeColor=none;fillColor=none;align=left;verticalAlign=top;spacingLeft=4;spacingRight=4;overflow=hidden;rotatable=0;points=[[0,0.5],[1,0.5]];portConstraint=eastwest;whiteSpace=wrap;html=1;" parent="t7bWghhwX8KJBcZdShjg-38" vertex="1">
          <mxGeometry y="104" width="80" height="26" as="geometry" />
        </mxCell>
        <mxCell id="t7bWghhwX8KJBcZdShjg-48" value="訂單日期" style="text;strokeColor=none;fillColor=none;align=left;verticalAlign=top;spacingLeft=4;spacingRight=4;overflow=hidden;rotatable=0;points=[[0,0.5],[1,0.5]];portConstraint=eastwest;whiteSpace=wrap;html=1;" parent="t7bWghhwX8KJBcZdShjg-38" vertex="1">
          <mxGeometry y="130" width="80" height="26" as="geometry" />
        </mxCell>
        <mxCell id="t7bWghhwX8KJBcZdShjg-44" value="菜單管理" style="swimlane;fontStyle=0;childLayout=stackLayout;horizontal=1;startSize=26;fillColor=none;horizontalStack=0;resizeParent=1;resizeParentMax=0;resizeLast=0;collapsible=1;marginBottom=0;whiteSpace=wrap;html=1;" parent="1" vertex="1">
          <mxGeometry x="100" y="636" width="80" height="182" as="geometry">
            <mxRectangle x="100" y="636" width="90" height="30" as="alternateBounds" />
          </mxGeometry>
        </mxCell>
        <mxCell id="t7bWghhwX8KJBcZdShjg-45" value="品項編號" style="text;strokeColor=none;fillColor=none;align=left;verticalAlign=top;spacingLeft=4;spacingRight=4;overflow=hidden;rotatable=0;points=[[0,0.5],[1,0.5]];portConstraint=eastwest;whiteSpace=wrap;html=1;" parent="t7bWghhwX8KJBcZdShjg-44" vertex="1">
          <mxGeometry y="26" width="80" height="26" as="geometry" />
        </mxCell>
        <mxCell id="t7bWghhwX8KJBcZdShjg-46" value="品項名稱" style="text;strokeColor=none;fillColor=none;align=left;verticalAlign=top;spacingLeft=4;spacingRight=4;overflow=hidden;rotatable=0;points=[[0,0.5],[1,0.5]];portConstraint=eastwest;whiteSpace=wrap;html=1;" parent="t7bWghhwX8KJBcZdShjg-44" vertex="1">
          <mxGeometry y="52" width="80" height="26" as="geometry" />
        </mxCell>
        <mxCell id="t7bWghhwX8KJBcZdShjg-126" value="類別" style="text;strokeColor=none;fillColor=none;align=left;verticalAlign=top;spacingLeft=4;spacingRight=4;overflow=hidden;rotatable=0;points=[[0,0.5],[1,0.5]];portConstraint=eastwest;whiteSpace=wrap;html=1;" parent="t7bWghhwX8KJBcZdShjg-44" vertex="1">
          <mxGeometry y="78" width="80" height="26" as="geometry" />
        </mxCell>
        <mxCell id="t7bWghhwX8KJBcZdShjg-47" value="單價" style="text;strokeColor=none;fillColor=none;align=left;verticalAlign=top;spacingLeft=4;spacingRight=4;overflow=hidden;rotatable=0;points=[[0,0.5],[1,0.5]];portConstraint=eastwest;whiteSpace=wrap;html=1;" parent="t7bWghhwX8KJBcZdShjg-44" vertex="1">
          <mxGeometry y="104" width="80" height="26" as="geometry" />
        </mxCell>
        <mxCell id="t7bWghhwX8KJBcZdShjg-51" value="圖片" style="text;strokeColor=none;fillColor=none;align=left;verticalAlign=top;spacingLeft=4;spacingRight=4;overflow=hidden;rotatable=0;points=[[0,0.5],[1,0.5]];portConstraint=eastwest;whiteSpace=wrap;html=1;" parent="t7bWghhwX8KJBcZdShjg-44" vertex="1">
          <mxGeometry y="130" width="80" height="26" as="geometry" />
        </mxCell>
        <mxCell id="t7bWghhwX8KJBcZdShjg-52" value="敘述" style="text;strokeColor=none;fillColor=none;align=left;verticalAlign=top;spacingLeft=4;spacingRight=4;overflow=hidden;rotatable=0;points=[[0,0.5],[1,0.5]];portConstraint=eastwest;whiteSpace=wrap;html=1;" parent="t7bWghhwX8KJBcZdShjg-44" vertex="1">
          <mxGeometry y="156" width="80" height="26" as="geometry" />
        </mxCell>
        <mxCell id="t7bWghhwX8KJBcZdShjg-60" value="會員資料" style="swimlane;fontStyle=0;childLayout=stackLayout;horizontal=1;startSize=30;fillColor=none;horizontalStack=0;resizeParent=1;resizeParentMax=0;resizeLast=0;collapsible=1;marginBottom=0;whiteSpace=wrap;html=1;fillStyle=auto;" parent="1" vertex="1">
          <mxGeometry y="338" width="80" height="186" as="geometry">
            <mxRectangle y="351" width="90" height="30" as="alternateBounds" />
          </mxGeometry>
        </mxCell>
        <mxCell id="t7bWghhwX8KJBcZdShjg-61" value="會員編號" style="text;strokeColor=none;fillColor=none;align=left;verticalAlign=top;spacingLeft=4;spacingRight=4;overflow=hidden;rotatable=0;points=[[0,0.5],[1,0.5]];portConstraint=eastwest;whiteSpace=wrap;html=1;" parent="t7bWghhwX8KJBcZdShjg-60" vertex="1">
          <mxGeometry y="30" width="80" height="26" as="geometry" />
        </mxCell>
        <mxCell id="t7bWghhwX8KJBcZdShjg-62" value="公司名稱" style="text;strokeColor=none;fillColor=none;align=left;verticalAlign=top;spacingLeft=4;spacingRight=4;overflow=hidden;rotatable=0;points=[[0,0.5],[1,0.5]];portConstraint=eastwest;whiteSpace=wrap;html=1;" parent="t7bWghhwX8KJBcZdShjg-60" vertex="1">
          <mxGeometry y="56" width="80" height="26" as="geometry" />
        </mxCell>
        <mxCell id="t7bWghhwX8KJBcZdShjg-63" value="公司地址" style="text;strokeColor=none;fillColor=none;align=left;verticalAlign=top;spacingLeft=4;spacingRight=4;overflow=hidden;rotatable=0;points=[[0,0.5],[1,0.5]];portConstraint=eastwest;whiteSpace=wrap;html=1;" parent="t7bWghhwX8KJBcZdShjg-60" vertex="1">
          <mxGeometry y="82" width="80" height="26" as="geometry" />
        </mxCell>
        <mxCell id="t7bWghhwX8KJBcZdShjg-64" value="公司電話" style="text;strokeColor=none;fillColor=none;align=left;verticalAlign=top;spacingLeft=4;spacingRight=4;overflow=hidden;rotatable=0;points=[[0,0.5],[1,0.5]];portConstraint=eastwest;whiteSpace=wrap;html=1;" parent="t7bWghhwX8KJBcZdShjg-60" vertex="1">
          <mxGeometry y="108" width="80" height="26" as="geometry" />
        </mxCell>
        <mxCell id="t7bWghhwX8KJBcZdShjg-138" value="統編" style="text;strokeColor=none;fillColor=none;align=left;verticalAlign=top;spacingLeft=4;spacingRight=4;overflow=hidden;rotatable=0;points=[[0,0.5],[1,0.5]];portConstraint=eastwest;whiteSpace=wrap;html=1;" parent="t7bWghhwX8KJBcZdShjg-60" vertex="1">
          <mxGeometry y="134" width="80" height="26" as="geometry" />
        </mxCell>
        <mxCell id="t7bWghhwX8KJBcZdShjg-65" value="Email" style="text;strokeColor=none;fillColor=none;align=left;verticalAlign=top;spacingLeft=4;spacingRight=4;overflow=hidden;rotatable=0;points=[[0,0.5],[1,0.5]];portConstraint=eastwest;whiteSpace=wrap;html=1;" parent="t7bWghhwX8KJBcZdShjg-60" vertex="1">
          <mxGeometry y="160" width="80" height="26" as="geometry" />
        </mxCell>
        <mxCell id="t7bWghhwX8KJBcZdShjg-99" style="edgeStyle=orthogonalEdgeStyle;rounded=0;orthogonalLoop=1;jettySize=auto;html=1;entryX=-0.089;entryY=0.176;entryDx=0;entryDy=0;entryPerimeter=0;" parent="1" source="t7bWghhwX8KJBcZdShjg-68" target="t7bWghhwX8KJBcZdShjg-79" edge="1">
          <mxGeometry relative="1" as="geometry">
            <Array as="points">
              <mxPoint x="365" y="150" />
              <mxPoint x="365" y="204" />
            </Array>
          </mxGeometry>
        </mxCell>
        <mxCell id="t7bWghhwX8KJBcZdShjg-68" value="註冊" style="swimlane;fontStyle=0;childLayout=stackLayout;horizontal=1;startSize=26;fillColor=none;horizontalStack=0;resizeParent=1;resizeParentMax=0;resizeLast=0;collapsible=1;marginBottom=0;whiteSpace=wrap;html=1;" parent="1" vertex="1">
          <mxGeometry x="200" y="130" width="80" height="208" as="geometry">
            <mxRectangle x="200" y="130" width="50" height="31" as="alternateBounds" />
          </mxGeometry>
        </mxCell>
        <mxCell id="t7bWghhwX8KJBcZdShjg-75" value="帳號" style="text;strokeColor=none;fillColor=none;align=left;verticalAlign=top;spacingLeft=4;spacingRight=4;overflow=hidden;rotatable=0;points=[[0,0.5],[1,0.5]];portConstraint=eastwest;whiteSpace=wrap;html=1;" parent="t7bWghhwX8KJBcZdShjg-68" vertex="1">
          <mxGeometry y="26" width="80" height="26" as="geometry" />
        </mxCell>
        <mxCell id="t7bWghhwX8KJBcZdShjg-76" value="密碼" style="text;strokeColor=none;fillColor=none;align=left;verticalAlign=top;spacingLeft=4;spacingRight=4;overflow=hidden;rotatable=0;points=[[0,0.5],[1,0.5]];portConstraint=eastwest;whiteSpace=wrap;html=1;" parent="t7bWghhwX8KJBcZdShjg-68" vertex="1">
          <mxGeometry y="52" width="80" height="26" as="geometry" />
        </mxCell>
        <mxCell id="t7bWghhwX8KJBcZdShjg-69" value="公司名稱" style="text;strokeColor=none;fillColor=none;align=left;verticalAlign=top;spacingLeft=4;spacingRight=4;overflow=hidden;rotatable=0;points=[[0,0.5],[1,0.5]];portConstraint=eastwest;whiteSpace=wrap;html=1;" parent="t7bWghhwX8KJBcZdShjg-68" vertex="1">
          <mxGeometry y="78" width="80" height="26" as="geometry" />
        </mxCell>
        <mxCell id="t7bWghhwX8KJBcZdShjg-70" value="公司電話" style="text;strokeColor=none;fillColor=none;align=left;verticalAlign=top;spacingLeft=4;spacingRight=4;overflow=hidden;rotatable=0;points=[[0,0.5],[1,0.5]];portConstraint=eastwest;whiteSpace=wrap;html=1;" parent="t7bWghhwX8KJBcZdShjg-68" vertex="1">
          <mxGeometry y="104" width="80" height="26" as="geometry" />
        </mxCell>
        <mxCell id="t7bWghhwX8KJBcZdShjg-77" value="統編" style="text;strokeColor=none;fillColor=none;align=left;verticalAlign=top;spacingLeft=4;spacingRight=4;overflow=hidden;rotatable=0;points=[[0,0.5],[1,0.5]];portConstraint=eastwest;whiteSpace=wrap;html=1;" parent="t7bWghhwX8KJBcZdShjg-68" vertex="1">
          <mxGeometry y="130" width="80" height="26" as="geometry" />
        </mxCell>
        <mxCell id="t7bWghhwX8KJBcZdShjg-78" value="地址" style="text;strokeColor=none;fillColor=none;align=left;verticalAlign=top;spacingLeft=4;spacingRight=4;overflow=hidden;rotatable=0;points=[[0,0.5],[1,0.5]];portConstraint=eastwest;whiteSpace=wrap;html=1;" parent="t7bWghhwX8KJBcZdShjg-68" vertex="1">
          <mxGeometry y="156" width="80" height="26" as="geometry" />
        </mxCell>
        <mxCell id="t7bWghhwX8KJBcZdShjg-71" value="Email" style="text;strokeColor=none;fillColor=none;align=left;verticalAlign=top;spacingLeft=4;spacingRight=4;overflow=hidden;rotatable=0;points=[[0,0.5],[1,0.5]];portConstraint=eastwest;whiteSpace=wrap;html=1;" parent="t7bWghhwX8KJBcZdShjg-68" vertex="1">
          <mxGeometry y="182" width="80" height="26" as="geometry" />
        </mxCell>
        <mxCell id="t7bWghhwX8KJBcZdShjg-73" style="edgeStyle=orthogonalEdgeStyle;rounded=0;orthogonalLoop=1;jettySize=auto;html=1;" parent="1" source="zR6GvW5vZxTVT4qoo_RN-16" target="t7bWghhwX8KJBcZdShjg-1" edge="1">
          <mxGeometry relative="1" as="geometry">
            <Array as="points">
              <mxPoint x="370" y="474" />
              <mxPoint x="370" y="394" />
            </Array>
          </mxGeometry>
        </mxCell>
        <mxCell id="t7bWghhwX8KJBcZdShjg-98" style="edgeStyle=orthogonalEdgeStyle;rounded=0;orthogonalLoop=1;jettySize=auto;html=1;entryX=0.5;entryY=0;entryDx=0;entryDy=0;" parent="1" source="t7bWghhwX8KJBcZdShjg-79" target="zR6GvW5vZxTVT4qoo_RN-15" edge="1">
          <mxGeometry relative="1" as="geometry" />
        </mxCell>
        <mxCell id="t7bWghhwX8KJBcZdShjg-79" value="登入" style="swimlane;fontStyle=0;childLayout=stackLayout;horizontal=1;startSize=26;fillColor=none;horizontalStack=0;resizeParent=1;resizeParentMax=0;resizeLast=0;collapsible=1;marginBottom=0;whiteSpace=wrap;html=1;" parent="1" vertex="1">
          <mxGeometry x="409" y="190" width="50" height="78" as="geometry">
            <mxRectangle x="409" y="190" width="60" height="30" as="alternateBounds" />
          </mxGeometry>
        </mxCell>
        <mxCell id="t7bWghhwX8KJBcZdShjg-80" value="帳號" style="text;strokeColor=none;fillColor=none;align=left;verticalAlign=top;spacingLeft=4;spacingRight=4;overflow=hidden;rotatable=0;points=[[0,0.5],[1,0.5]];portConstraint=eastwest;whiteSpace=wrap;html=1;" parent="t7bWghhwX8KJBcZdShjg-79" vertex="1">
          <mxGeometry y="26" width="50" height="26" as="geometry" />
        </mxCell>
        <mxCell id="t7bWghhwX8KJBcZdShjg-81" value="密碼" style="text;strokeColor=none;fillColor=none;align=left;verticalAlign=top;spacingLeft=4;spacingRight=4;overflow=hidden;rotatable=0;points=[[0,0.5],[1,0.5]];portConstraint=eastwest;whiteSpace=wrap;html=1;" parent="t7bWghhwX8KJBcZdShjg-79" vertex="1">
          <mxGeometry y="52" width="50" height="26" as="geometry" />
        </mxCell>
        <mxCell id="t7bWghhwX8KJBcZdShjg-87" style="edgeStyle=orthogonalEdgeStyle;rounded=0;orthogonalLoop=1;jettySize=auto;html=1;entryX=0.989;entryY=0.085;entryDx=0;entryDy=0;entryPerimeter=0;" parent="1" source="zR6GvW5vZxTVT4qoo_RN-18" target="t7bWghhwX8KJBcZdShjg-38" edge="1">
          <mxGeometry relative="1" as="geometry">
            <Array as="points">
              <mxPoint x="330" y="552" />
              <mxPoint x="330" y="619" />
            </Array>
          </mxGeometry>
        </mxCell>
        <mxCell id="t7bWghhwX8KJBcZdShjg-89" value="顧客資訊" style="swimlane;fontStyle=0;childLayout=stackLayout;horizontal=1;startSize=26;fillColor=none;horizontalStack=0;resizeParent=1;resizeParentMax=0;resizeLast=0;collapsible=1;marginBottom=0;whiteSpace=wrap;html=1;" parent="1" vertex="1">
          <mxGeometry x="200" y="670" width="96" height="182" as="geometry">
            <mxRectangle x="200" y="660" width="90" height="30" as="alternateBounds" />
          </mxGeometry>
        </mxCell>
        <mxCell id="t7bWghhwX8KJBcZdShjg-90" value="訂單編號" style="text;strokeColor=none;fillColor=none;align=left;verticalAlign=top;spacingLeft=4;spacingRight=4;overflow=hidden;rotatable=0;points=[[0,0.5],[1,0.5]];portConstraint=eastwest;whiteSpace=wrap;html=1;" parent="t7bWghhwX8KJBcZdShjg-89" vertex="1">
          <mxGeometry y="26" width="96" height="26" as="geometry" />
        </mxCell>
        <mxCell id="t7bWghhwX8KJBcZdShjg-91" value="姓名" style="text;strokeColor=none;fillColor=none;align=left;verticalAlign=top;spacingLeft=4;spacingRight=4;overflow=hidden;rotatable=0;points=[[0,0.5],[1,0.5]];portConstraint=eastwest;whiteSpace=wrap;html=1;" parent="t7bWghhwX8KJBcZdShjg-89" vertex="1">
          <mxGeometry y="52" width="96" height="26" as="geometry" />
        </mxCell>
        <mxCell id="t7bWghhwX8KJBcZdShjg-92" value="電話" style="text;strokeColor=none;fillColor=none;align=left;verticalAlign=top;spacingLeft=4;spacingRight=4;overflow=hidden;rotatable=0;points=[[0,0.5],[1,0.5]];portConstraint=eastwest;whiteSpace=wrap;html=1;" parent="t7bWghhwX8KJBcZdShjg-89" vertex="1">
          <mxGeometry y="78" width="96" height="26" as="geometry" />
        </mxCell>
        <mxCell id="t7bWghhwX8KJBcZdShjg-93" value="外帶/內用(人數)" style="text;strokeColor=none;fillColor=none;align=left;verticalAlign=top;spacingLeft=4;spacingRight=4;overflow=hidden;rotatable=0;points=[[0,0.5],[1,0.5]];portConstraint=eastwest;whiteSpace=wrap;html=1;" parent="t7bWghhwX8KJBcZdShjg-89" vertex="1">
          <mxGeometry y="104" width="96" height="26" as="geometry" />
        </mxCell>
        <mxCell id="t7bWghhwX8KJBcZdShjg-103" value="金額" style="text;strokeColor=none;fillColor=none;align=left;verticalAlign=top;spacingLeft=4;spacingRight=4;overflow=hidden;rotatable=0;points=[[0,0.5],[1,0.5]];portConstraint=eastwest;whiteSpace=wrap;html=1;" parent="t7bWghhwX8KJBcZdShjg-89" vertex="1">
          <mxGeometry y="130" width="96" height="26" as="geometry" />
        </mxCell>
        <mxCell id="t7bWghhwX8KJBcZdShjg-104" value="訂購日期" style="text;strokeColor=none;fillColor=none;align=left;verticalAlign=top;spacingLeft=4;spacingRight=4;overflow=hidden;rotatable=0;points=[[0,0.5],[1,0.5]];portConstraint=eastwest;whiteSpace=wrap;html=1;" parent="t7bWghhwX8KJBcZdShjg-89" vertex="1">
          <mxGeometry y="156" width="96" height="26" as="geometry" />
        </mxCell>
        <mxCell id="t7bWghhwX8KJBcZdShjg-94" style="edgeStyle=orthogonalEdgeStyle;rounded=0;orthogonalLoop=1;jettySize=auto;html=1;entryX=1.034;entryY=0.108;entryDx=0;entryDy=0;entryPerimeter=0;" parent="1" source="t7bWghhwX8KJBcZdShjg-66" target="t7bWghhwX8KJBcZdShjg-60" edge="1">
          <mxGeometry relative="1" as="geometry">
            <Array as="points">
              <mxPoint x="380" y="448" />
              <mxPoint x="380" y="358" />
            </Array>
          </mxGeometry>
        </mxCell>
        <mxCell id="t7bWghhwX8KJBcZdShjg-95" style="edgeStyle=orthogonalEdgeStyle;rounded=0;orthogonalLoop=1;jettySize=auto;html=1;entryX=1;entryY=0.057;entryDx=0;entryDy=0;entryPerimeter=0;" parent="1" source="t7bWghhwX8KJBcZdShjg-53" target="t7bWghhwX8KJBcZdShjg-26" edge="1">
          <mxGeometry relative="1" as="geometry" />
        </mxCell>
        <mxCell id="t7bWghhwX8KJBcZdShjg-96" style="edgeStyle=orthogonalEdgeStyle;rounded=0;orthogonalLoop=1;jettySize=auto;html=1;entryX=0.989;entryY=0.096;entryDx=0;entryDy=0;entryPerimeter=0;" parent="1" source="t7bWghhwX8KJBcZdShjg-50" target="t7bWghhwX8KJBcZdShjg-44" edge="1">
          <mxGeometry relative="1" as="geometry">
            <Array as="points">
              <mxPoint x="360" y="578" />
              <mxPoint x="360" y="654" />
            </Array>
          </mxGeometry>
        </mxCell>
        <mxCell id="t7bWghhwX8KJBcZdShjg-105" style="edgeStyle=orthogonalEdgeStyle;rounded=0;orthogonalLoop=1;jettySize=auto;html=1;entryX=1.004;entryY=0.105;entryDx=0;entryDy=0;entryPerimeter=0;" parent="1" source="t7bWghhwX8KJBcZdShjg-88" target="t7bWghhwX8KJBcZdShjg-89" edge="1">
          <mxGeometry relative="1" as="geometry">
            <Array as="points">
              <mxPoint x="380" y="604" />
              <mxPoint x="380" y="689" />
            </Array>
          </mxGeometry>
        </mxCell>
        <mxCell id="t7bWghhwX8KJBcZdShjg-108" value="訂位" style="swimlane;fontStyle=0;childLayout=stackLayout;horizontal=1;startSize=26;fillColor=none;horizontalStack=0;resizeParent=1;resizeParentMax=0;resizeLast=0;collapsible=1;marginBottom=0;whiteSpace=wrap;html=1;" parent="1" vertex="1">
          <mxGeometry x="717" y="305" width="80" height="182" as="geometry">
            <mxRectangle x="100" y="379" width="90" height="30" as="alternateBounds" />
          </mxGeometry>
        </mxCell>
        <mxCell id="t7bWghhwX8KJBcZdShjg-109" value="姓名" style="text;strokeColor=none;fillColor=none;align=left;verticalAlign=top;spacingLeft=4;spacingRight=4;overflow=hidden;rotatable=0;points=[[0,0.5],[1,0.5]];portConstraint=eastwest;whiteSpace=wrap;html=1;" parent="t7bWghhwX8KJBcZdShjg-108" vertex="1">
          <mxGeometry y="26" width="80" height="26" as="geometry" />
        </mxCell>
        <mxCell id="t7bWghhwX8KJBcZdShjg-110" value="電話" style="text;strokeColor=none;fillColor=none;align=left;verticalAlign=top;spacingLeft=4;spacingRight=4;overflow=hidden;rotatable=0;points=[[0,0.5],[1,0.5]];portConstraint=eastwest;whiteSpace=wrap;html=1;" parent="t7bWghhwX8KJBcZdShjg-108" vertex="1">
          <mxGeometry y="52" width="80" height="26" as="geometry" />
        </mxCell>
        <mxCell id="t7bWghhwX8KJBcZdShjg-111" value="人數&lt;br&gt;" style="text;strokeColor=none;fillColor=none;align=left;verticalAlign=top;spacingLeft=4;spacingRight=4;overflow=hidden;rotatable=0;points=[[0,0.5],[1,0.5]];portConstraint=eastwest;whiteSpace=wrap;html=1;" parent="t7bWghhwX8KJBcZdShjg-108" vertex="1">
          <mxGeometry y="78" width="80" height="26" as="geometry" />
        </mxCell>
        <mxCell id="t7bWghhwX8KJBcZdShjg-112" value="Email" style="text;strokeColor=none;fillColor=none;align=left;verticalAlign=top;spacingLeft=4;spacingRight=4;overflow=hidden;rotatable=0;points=[[0,0.5],[1,0.5]];portConstraint=eastwest;whiteSpace=wrap;html=1;" parent="t7bWghhwX8KJBcZdShjg-108" vertex="1">
          <mxGeometry y="104" width="80" height="26" as="geometry" />
        </mxCell>
        <mxCell id="t7bWghhwX8KJBcZdShjg-113" value="訂位日期" style="text;strokeColor=none;fillColor=none;align=left;verticalAlign=top;spacingLeft=4;spacingRight=4;overflow=hidden;rotatable=0;points=[[0,0.5],[1,0.5]];portConstraint=eastwest;whiteSpace=wrap;html=1;" parent="t7bWghhwX8KJBcZdShjg-108" vertex="1">
          <mxGeometry y="130" width="80" height="26" as="geometry" />
        </mxCell>
        <mxCell id="t7bWghhwX8KJBcZdShjg-114" value="訂位時間" style="text;strokeColor=none;fillColor=none;align=left;verticalAlign=top;spacingLeft=4;spacingRight=4;overflow=hidden;rotatable=0;points=[[0,0.5],[1,0.5]];portConstraint=eastwest;whiteSpace=wrap;html=1;" parent="t7bWghhwX8KJBcZdShjg-108" vertex="1">
          <mxGeometry y="156" width="80" height="26" as="geometry" />
        </mxCell>
        <mxCell id="t7bWghhwX8KJBcZdShjg-133" style="edgeStyle=orthogonalEdgeStyle;shape=connector;rounded=0;orthogonalLoop=1;jettySize=auto;html=1;exitX=0.5;exitY=1;exitDx=0;exitDy=0;labelBackgroundColor=default;strokeColor=default;fontFamily=Helvetica;fontSize=11;fontColor=default;startArrow=none;startFill=0;endArrow=none;endFill=0;" parent="1" edge="1">
          <mxGeometry relative="1" as="geometry">
            <mxPoint x="630" y="371" as="targetPoint" />
            <mxPoint x="670" y="339" as="sourcePoint" />
            <Array as="points">
              <mxPoint x="670" y="361" />
              <mxPoint x="630" y="361" />
            </Array>
          </mxGeometry>
        </mxCell>
        <mxCell id="t7bWghhwX8KJBcZdShjg-116" value="內用" style="rounded=0;whiteSpace=wrap;html=1;" parent="1" vertex="1">
          <mxGeometry x="635" y="305" width="70" height="33" as="geometry" />
        </mxCell>
        <mxCell id="t7bWghhwX8KJBcZdShjg-122" value="菜單" style="swimlane;fontStyle=0;childLayout=stackLayout;horizontal=1;startSize=26;fillColor=none;horizontalStack=0;resizeParent=1;resizeParentMax=0;resizeLast=0;collapsible=1;marginBottom=0;whiteSpace=wrap;html=1;fontFamily=Helvetica;fontSize=11;fontColor=default;" parent="1" vertex="1">
          <mxGeometry x="580" y="383" width="100" height="182" as="geometry" />
        </mxCell>
        <mxCell id="t7bWghhwX8KJBcZdShjg-123" value="類別" style="text;strokeColor=none;fillColor=none;align=left;verticalAlign=top;spacingLeft=4;spacingRight=4;overflow=hidden;rotatable=0;points=[[0,0.5],[1,0.5]];portConstraint=eastwest;whiteSpace=wrap;html=1;fontSize=11;fontFamily=Helvetica;fontColor=default;" parent="t7bWghhwX8KJBcZdShjg-122" vertex="1">
          <mxGeometry y="26" width="100" height="26" as="geometry" />
        </mxCell>
        <mxCell id="t7bWghhwX8KJBcZdShjg-124" value="品項名稱" style="text;strokeColor=none;fillColor=none;align=left;verticalAlign=top;spacingLeft=4;spacingRight=4;overflow=hidden;rotatable=0;points=[[0,0.5],[1,0.5]];portConstraint=eastwest;whiteSpace=wrap;html=1;fontSize=11;fontFamily=Helvetica;fontColor=default;" parent="t7bWghhwX8KJBcZdShjg-122" vertex="1">
          <mxGeometry y="52" width="100" height="26" as="geometry" />
        </mxCell>
        <mxCell id="t7bWghhwX8KJBcZdShjg-129" value="圖片" style="text;strokeColor=none;fillColor=none;align=left;verticalAlign=top;spacingLeft=4;spacingRight=4;overflow=hidden;rotatable=0;points=[[0,0.5],[1,0.5]];portConstraint=eastwest;whiteSpace=wrap;html=1;fontSize=11;fontFamily=Helvetica;fontColor=default;" parent="t7bWghhwX8KJBcZdShjg-122" vertex="1">
          <mxGeometry y="78" width="100" height="26" as="geometry" />
        </mxCell>
        <mxCell id="t7bWghhwX8KJBcZdShjg-127" value="單價" style="text;strokeColor=none;fillColor=none;align=left;verticalAlign=top;spacingLeft=4;spacingRight=4;overflow=hidden;rotatable=0;points=[[0,0.5],[1,0.5]];portConstraint=eastwest;whiteSpace=wrap;html=1;fontSize=11;fontFamily=Helvetica;fontColor=default;" parent="t7bWghhwX8KJBcZdShjg-122" vertex="1">
          <mxGeometry y="104" width="100" height="26" as="geometry" />
        </mxCell>
        <mxCell id="t7bWghhwX8KJBcZdShjg-128" value="數量" style="text;strokeColor=none;fillColor=none;align=left;verticalAlign=top;spacingLeft=4;spacingRight=4;overflow=hidden;rotatable=0;points=[[0,0.5],[1,0.5]];portConstraint=eastwest;whiteSpace=wrap;html=1;fontSize=11;fontFamily=Helvetica;fontColor=default;" parent="t7bWghhwX8KJBcZdShjg-122" vertex="1">
          <mxGeometry y="130" width="100" height="26" as="geometry" />
        </mxCell>
        <mxCell id="t7bWghhwX8KJBcZdShjg-130" value="敘述" style="text;strokeColor=none;fillColor=none;align=left;verticalAlign=top;spacingLeft=4;spacingRight=4;overflow=hidden;rotatable=0;points=[[0,0.5],[1,0.5]];portConstraint=eastwest;whiteSpace=wrap;html=1;fontSize=11;fontFamily=Helvetica;fontColor=default;" parent="t7bWghhwX8KJBcZdShjg-122" vertex="1">
          <mxGeometry y="156" width="100" height="26" as="geometry" />
        </mxCell>
        <mxCell id="xQNgTAcxKqtw9KDlEkf2-2" value="第三方登入" style="html=1;whiteSpace=wrap;" parent="1" vertex="1">
          <mxGeometry x="627.5" y="200" width="85" height="30" as="geometry" />
        </mxCell>
      </root>
    </mxGraphModel>
  </diagram>
  <diagram id="K0uiIju5QuX7LLtMVHnE" name="第 3 页">
    <mxGraphModel dx="869" dy="2817" grid="1" gridSize="10" guides="1" tooltips="1" connect="1" arrows="1" fold="1" page="1" pageScale="1" pageWidth="827" pageHeight="1169" math="0" shadow="0">
      <root>
        <mxCell id="0" />
        <mxCell id="1" parent="0" />
        <mxCell id="ZEw2Qx3wpyFymtsAg1ht-5" value="顧客端" style="swimlane;fontStyle=0;childLayout=stackLayout;horizontal=1;startSize=26;fillColor=none;horizontalStack=0;resizeParent=1;resizeParentMax=0;resizeLast=0;collapsible=1;marginBottom=0;whiteSpace=wrap;html=1;" vertex="1" parent="1">
          <mxGeometry x="10" y="-1340" width="140" height="234" as="geometry" />
        </mxCell>
        <mxCell id="ZEw2Qx3wpyFymtsAg1ht-6" value="註冊登入" style="text;strokeColor=none;fillColor=none;align=left;verticalAlign=top;spacingLeft=4;spacingRight=4;overflow=hidden;rotatable=0;points=[[0,0.5],[1,0.5]];portConstraint=eastwest;whiteSpace=wrap;html=1;" vertex="1" parent="ZEw2Qx3wpyFymtsAg1ht-5">
          <mxGeometry y="26" width="140" height="26" as="geometry" />
        </mxCell>
        <mxCell id="ZEw2Qx3wpyFymtsAg1ht-20" value="個人資料管理" style="text;align=left;verticalAlign=top;spacingLeft=4;spacingRight=4;overflow=hidden;rotatable=0;points=[[0,0.5],[1,0.5]];portConstraint=eastwest;whiteSpace=wrap;html=1;" vertex="1" parent="ZEw2Qx3wpyFymtsAg1ht-5">
          <mxGeometry y="52" width="140" height="26" as="geometry" />
        </mxCell>
        <mxCell id="ZEw2Qx3wpyFymtsAg1ht-7" value="餐廳搜尋與過濾" style="text;strokeColor=none;fillColor=none;align=left;verticalAlign=top;spacingLeft=4;spacingRight=4;overflow=hidden;rotatable=0;points=[[0,0.5],[1,0.5]];portConstraint=eastwest;whiteSpace=wrap;html=1;" vertex="1" parent="ZEw2Qx3wpyFymtsAg1ht-5">
          <mxGeometry y="78" width="140" height="26" as="geometry" />
        </mxCell>
        <mxCell id="ZEw2Qx3wpyFymtsAg1ht-8" value="餐點選擇與自定義" style="text;align=left;verticalAlign=top;spacingLeft=4;spacingRight=4;overflow=hidden;rotatable=0;points=[[0,0.5],[1,0.5]];portConstraint=eastwest;whiteSpace=wrap;html=1;fillColor=#fff2cc;strokeColor=#d6b656;" vertex="1" parent="ZEw2Qx3wpyFymtsAg1ht-5">
          <mxGeometry y="104" width="140" height="26" as="geometry" />
        </mxCell>
        <mxCell id="ZEw2Qx3wpyFymtsAg1ht-15" value="購物車與結帳" style="text;strokeColor=none;fillColor=none;align=left;verticalAlign=top;spacingLeft=4;spacingRight=4;overflow=hidden;rotatable=0;points=[[0,0.5],[1,0.5]];portConstraint=eastwest;whiteSpace=wrap;html=1;" vertex="1" parent="ZEw2Qx3wpyFymtsAg1ht-5">
          <mxGeometry y="130" width="140" height="26" as="geometry" />
        </mxCell>
        <mxCell id="ZEw2Qx3wpyFymtsAg1ht-14" value="支付方式" style="text;strokeColor=none;fillColor=none;align=left;verticalAlign=top;spacingLeft=4;spacingRight=4;overflow=hidden;rotatable=0;points=[[0,0.5],[1,0.5]];portConstraint=eastwest;whiteSpace=wrap;html=1;" vertex="1" parent="ZEw2Qx3wpyFymtsAg1ht-5">
          <mxGeometry y="156" width="140" height="26" as="geometry" />
        </mxCell>
        <mxCell id="ZEw2Qx3wpyFymtsAg1ht-13" value="訂單追蹤" style="text;strokeColor=none;fillColor=none;align=left;verticalAlign=top;spacingLeft=4;spacingRight=4;overflow=hidden;rotatable=0;points=[[0,0.5],[1,0.5]];portConstraint=eastwest;whiteSpace=wrap;html=1;" vertex="1" parent="ZEw2Qx3wpyFymtsAg1ht-5">
          <mxGeometry y="182" width="140" height="26" as="geometry" />
        </mxCell>
        <mxCell id="ZEw2Qx3wpyFymtsAg1ht-12" value="客服與支援(取消訂單)" style="text;strokeColor=none;fillColor=none;align=left;verticalAlign=top;spacingLeft=4;spacingRight=4;overflow=hidden;rotatable=0;points=[[0,0.5],[1,0.5]];portConstraint=eastwest;whiteSpace=wrap;html=1;" vertex="1" parent="ZEw2Qx3wpyFymtsAg1ht-5">
          <mxGeometry y="208" width="140" height="26" as="geometry" />
        </mxCell>
        <mxCell id="ZEw2Qx3wpyFymtsAg1ht-16" value="餐廳端" style="swimlane;fontStyle=0;childLayout=stackLayout;horizontal=1;startSize=26;fillColor=none;horizontalStack=0;resizeParent=1;resizeParentMax=0;resizeLast=0;collapsible=1;marginBottom=0;whiteSpace=wrap;html=1;" vertex="1" parent="1">
          <mxGeometry x="170" y="-1340" width="140" height="234" as="geometry" />
        </mxCell>
        <mxCell id="ZEw2Qx3wpyFymtsAg1ht-17" value="註冊登入" style="text;strokeColor=none;fillColor=none;align=left;verticalAlign=top;spacingLeft=4;spacingRight=4;overflow=hidden;rotatable=0;points=[[0,0.5],[1,0.5]];portConstraint=eastwest;whiteSpace=wrap;html=1;" vertex="1" parent="ZEw2Qx3wpyFymtsAg1ht-16">
          <mxGeometry y="26" width="140" height="26" as="geometry" />
        </mxCell>
        <mxCell id="ZEw2Qx3wpyFymtsAg1ht-18" value="資料管理" style="text;strokeColor=none;fillColor=none;align=left;verticalAlign=top;spacingLeft=4;spacingRight=4;overflow=hidden;rotatable=0;points=[[0,0.5],[1,0.5]];portConstraint=eastwest;whiteSpace=wrap;html=1;" vertex="1" parent="ZEw2Qx3wpyFymtsAg1ht-16">
          <mxGeometry y="52" width="140" height="26" as="geometry" />
        </mxCell>
        <mxCell id="ZEw2Qx3wpyFymtsAg1ht-19" value="菜單管理" style="text;strokeColor=none;fillColor=none;align=left;verticalAlign=top;spacingLeft=4;spacingRight=4;overflow=hidden;rotatable=0;points=[[0,0.5],[1,0.5]];portConstraint=eastwest;whiteSpace=wrap;html=1;" vertex="1" parent="ZEw2Qx3wpyFymtsAg1ht-16">
          <mxGeometry y="78" width="140" height="26" as="geometry" />
        </mxCell>
        <mxCell id="ZEw2Qx3wpyFymtsAg1ht-23" value="訂單管理" style="text;strokeColor=none;fillColor=none;align=left;verticalAlign=top;spacingLeft=4;spacingRight=4;overflow=hidden;rotatable=0;points=[[0,0.5],[1,0.5]];portConstraint=eastwest;whiteSpace=wrap;html=1;" vertex="1" parent="ZEw2Qx3wpyFymtsAg1ht-16">
          <mxGeometry y="104" width="140" height="26" as="geometry" />
        </mxCell>
        <mxCell id="ZEw2Qx3wpyFymtsAg1ht-24" value="通知與提醒" style="text;strokeColor=none;fillColor=none;align=left;verticalAlign=top;spacingLeft=4;spacingRight=4;overflow=hidden;rotatable=0;points=[[0,0.5],[1,0.5]];portConstraint=eastwest;whiteSpace=wrap;html=1;" vertex="1" parent="ZEw2Qx3wpyFymtsAg1ht-16">
          <mxGeometry y="130" width="140" height="26" as="geometry" />
        </mxCell>
        <mxCell id="ZEw2Qx3wpyFymtsAg1ht-25" value="評價管理" style="text;strokeColor=none;fillColor=none;align=left;verticalAlign=top;spacingLeft=4;spacingRight=4;overflow=hidden;rotatable=0;points=[[0,0.5],[1,0.5]];portConstraint=eastwest;whiteSpace=wrap;html=1;" vertex="1" parent="ZEw2Qx3wpyFymtsAg1ht-16">
          <mxGeometry y="156" width="140" height="26" as="geometry" />
        </mxCell>
        <mxCell id="ZEw2Qx3wpyFymtsAg1ht-26" value="客服與支援" style="text;strokeColor=none;fillColor=none;align=left;verticalAlign=top;spacingLeft=4;spacingRight=4;overflow=hidden;rotatable=0;points=[[0,0.5],[1,0.5]];portConstraint=eastwest;whiteSpace=wrap;html=1;" vertex="1" parent="ZEw2Qx3wpyFymtsAg1ht-16">
          <mxGeometry y="182" width="140" height="26" as="geometry" />
        </mxCell>
        <mxCell id="ZEw2Qx3wpyFymtsAg1ht-22" value="統計報表" style="text;strokeColor=#d6b656;fillColor=#fff2cc;align=left;verticalAlign=top;spacingLeft=4;spacingRight=4;overflow=hidden;rotatable=0;points=[[0,0.5],[1,0.5]];portConstraint=eastwest;whiteSpace=wrap;html=1;" vertex="1" parent="ZEw2Qx3wpyFymtsAg1ht-16">
          <mxGeometry y="208" width="140" height="26" as="geometry" />
        </mxCell>
        <mxCell id="ZEw2Qx3wpyFymtsAg1ht-27" value="外送員端" style="swimlane;fontStyle=0;childLayout=stackLayout;horizontal=1;startSize=26;fillColor=#f8cecc;horizontalStack=0;resizeParent=1;resizeParentMax=0;resizeLast=0;collapsible=1;marginBottom=0;whiteSpace=wrap;html=1;strokeColor=#b85450;" vertex="1" parent="1">
          <mxGeometry x="330" y="-1340" width="140" height="234" as="geometry" />
        </mxCell>
        <mxCell id="ZEw2Qx3wpyFymtsAg1ht-28" value="註冊與登入" style="text;strokeColor=none;fillColor=none;align=left;verticalAlign=top;spacingLeft=4;spacingRight=4;overflow=hidden;rotatable=0;points=[[0,0.5],[1,0.5]];portConstraint=eastwest;whiteSpace=wrap;html=1;" vertex="1" parent="ZEw2Qx3wpyFymtsAg1ht-27">
          <mxGeometry y="26" width="140" height="26" as="geometry" />
        </mxCell>
        <mxCell id="ZEw2Qx3wpyFymtsAg1ht-29" value="個人資料管理" style="text;strokeColor=none;fillColor=none;align=left;verticalAlign=top;spacingLeft=4;spacingRight=4;overflow=hidden;rotatable=0;points=[[0,0.5],[1,0.5]];portConstraint=eastwest;whiteSpace=wrap;html=1;" vertex="1" parent="ZEw2Qx3wpyFymtsAg1ht-27">
          <mxGeometry y="52" width="140" height="26" as="geometry" />
        </mxCell>
        <mxCell id="ZEw2Qx3wpyFymtsAg1ht-30" value="接單功能" style="text;strokeColor=none;fillColor=none;align=left;verticalAlign=top;spacingLeft=4;spacingRight=4;overflow=hidden;rotatable=0;points=[[0,0.5],[1,0.5]];portConstraint=eastwest;whiteSpace=wrap;html=1;" vertex="1" parent="ZEw2Qx3wpyFymtsAg1ht-27">
          <mxGeometry y="78" width="140" height="26" as="geometry" />
        </mxCell>
        <mxCell id="ZEw2Qx3wpyFymtsAg1ht-34" value="訂單管理" style="text;strokeColor=none;fillColor=none;align=left;verticalAlign=top;spacingLeft=4;spacingRight=4;overflow=hidden;rotatable=0;points=[[0,0.5],[1,0.5]];portConstraint=eastwest;whiteSpace=wrap;html=1;" vertex="1" parent="ZEw2Qx3wpyFymtsAg1ht-27">
          <mxGeometry y="104" width="140" height="26" as="geometry" />
        </mxCell>
        <mxCell id="ZEw2Qx3wpyFymtsAg1ht-33" value="導航功能" style="text;strokeColor=none;fillColor=none;align=left;verticalAlign=top;spacingLeft=4;spacingRight=4;overflow=hidden;rotatable=0;points=[[0,0.5],[1,0.5]];portConstraint=eastwest;whiteSpace=wrap;html=1;" vertex="1" parent="ZEw2Qx3wpyFymtsAg1ht-27">
          <mxGeometry y="130" width="140" height="26" as="geometry" />
        </mxCell>
        <mxCell id="ZEw2Qx3wpyFymtsAg1ht-32" value="收入管理" style="text;strokeColor=none;fillColor=none;align=left;verticalAlign=top;spacingLeft=4;spacingRight=4;overflow=hidden;rotatable=0;points=[[0,0.5],[1,0.5]];portConstraint=eastwest;whiteSpace=wrap;html=1;" vertex="1" parent="ZEw2Qx3wpyFymtsAg1ht-27">
          <mxGeometry y="156" width="140" height="26" as="geometry" />
        </mxCell>
        <mxCell id="ZEw2Qx3wpyFymtsAg1ht-31" value="歷史訂單" style="text;strokeColor=none;fillColor=none;align=left;verticalAlign=top;spacingLeft=4;spacingRight=4;overflow=hidden;rotatable=0;points=[[0,0.5],[1,0.5]];portConstraint=eastwest;whiteSpace=wrap;html=1;" vertex="1" parent="ZEw2Qx3wpyFymtsAg1ht-27">
          <mxGeometry y="182" width="140" height="26" as="geometry" />
        </mxCell>
        <mxCell id="ZEw2Qx3wpyFymtsAg1ht-35" value="客服與支援" style="text;strokeColor=none;fillColor=none;align=left;verticalAlign=top;spacingLeft=4;spacingRight=4;overflow=hidden;rotatable=0;points=[[0,0.5],[1,0.5]];portConstraint=eastwest;whiteSpace=wrap;html=1;" vertex="1" parent="ZEw2Qx3wpyFymtsAg1ht-27">
          <mxGeometry y="208" width="140" height="26" as="geometry" />
        </mxCell>
        <mxCell id="ZEw2Qx3wpyFymtsAg1ht-40" value="管理員後台" style="swimlane;fontStyle=0;childLayout=stackLayout;horizontal=1;startSize=26;horizontalStack=0;resizeParent=1;resizeParentMax=0;resizeLast=0;collapsible=1;marginBottom=0;whiteSpace=wrap;html=1;" vertex="1" parent="1">
          <mxGeometry x="490" y="-1340" width="140" height="234" as="geometry" />
        </mxCell>
        <mxCell id="ZEw2Qx3wpyFymtsAg1ht-41" value="用戶管理" style="text;strokeColor=none;fillColor=none;align=left;verticalAlign=top;spacingLeft=4;spacingRight=4;overflow=hidden;rotatable=0;points=[[0,0.5],[1,0.5]];portConstraint=eastwest;whiteSpace=wrap;html=1;" vertex="1" parent="ZEw2Qx3wpyFymtsAg1ht-40">
          <mxGeometry y="26" width="140" height="26" as="geometry" />
        </mxCell>
        <mxCell id="ZEw2Qx3wpyFymtsAg1ht-42" value="訂單管理" style="text;strokeColor=none;fillColor=none;align=left;verticalAlign=top;spacingLeft=4;spacingRight=4;overflow=hidden;rotatable=0;points=[[0,0.5],[1,0.5]];portConstraint=eastwest;whiteSpace=wrap;html=1;" vertex="1" parent="ZEw2Qx3wpyFymtsAg1ht-40">
          <mxGeometry y="52" width="140" height="26" as="geometry" />
        </mxCell>
        <mxCell id="ZEw2Qx3wpyFymtsAg1ht-43" value="數據分析與報表" style="text;strokeColor=#d6b656;fillColor=#fff2cc;align=left;verticalAlign=top;spacingLeft=4;spacingRight=4;overflow=hidden;rotatable=0;points=[[0,0.5],[1,0.5]];portConstraint=eastwest;whiteSpace=wrap;html=1;" vertex="1" parent="ZEw2Qx3wpyFymtsAg1ht-40">
          <mxGeometry y="78" width="140" height="26" as="geometry" />
        </mxCell>
        <mxCell id="ZEw2Qx3wpyFymtsAg1ht-45" value="廣告與促銷活動管理" style="text;align=left;verticalAlign=top;spacingLeft=4;spacingRight=4;overflow=hidden;rotatable=0;points=[[0,0.5],[1,0.5]];portConstraint=eastwest;whiteSpace=wrap;html=1;fillColor=#fff2cc;strokeColor=#d6b656;" vertex="1" parent="ZEw2Qx3wpyFymtsAg1ht-40">
          <mxGeometry y="104" width="140" height="26" as="geometry" />
        </mxCell>
        <mxCell id="ZEw2Qx3wpyFymtsAg1ht-44" value="客戶評價管理" style="text;strokeColor=none;fillColor=none;align=left;verticalAlign=top;spacingLeft=4;spacingRight=4;overflow=hidden;rotatable=0;points=[[0,0.5],[1,0.5]];portConstraint=eastwest;whiteSpace=wrap;html=1;" vertex="1" parent="ZEw2Qx3wpyFymtsAg1ht-40">
          <mxGeometry y="130" width="140" height="26" as="geometry" />
        </mxCell>
        <mxCell id="ZEw2Qx3wpyFymtsAg1ht-46" value="客服管理" style="text;strokeColor=none;fillColor=none;align=left;verticalAlign=top;spacingLeft=4;spacingRight=4;overflow=hidden;rotatable=0;points=[[0,0.5],[1,0.5]];portConstraint=eastwest;whiteSpace=wrap;html=1;" vertex="1" parent="ZEw2Qx3wpyFymtsAg1ht-40">
          <mxGeometry y="156" width="140" height="26" as="geometry" />
        </mxCell>
        <mxCell id="ZEw2Qx3wpyFymtsAg1ht-47" value="財務報表" style="text;strokeColor=#d6b656;fillColor=#fff2cc;align=left;verticalAlign=top;spacingLeft=4;spacingRight=4;overflow=hidden;rotatable=0;points=[[0,0.5],[1,0.5]];portConstraint=eastwest;whiteSpace=wrap;html=1;" vertex="1" parent="ZEw2Qx3wpyFymtsAg1ht-40">
          <mxGeometry y="182" width="140" height="26" as="geometry" />
        </mxCell>
        <mxCell id="ZEw2Qx3wpyFymtsAg1ht-48" value="系統設置與維護(折價券)" style="text;strokeColor=#d6b656;fillColor=#fff2cc;align=left;verticalAlign=top;spacingLeft=4;spacingRight=4;overflow=hidden;rotatable=0;points=[[0,0.5],[1,0.5]];portConstraint=eastwest;whiteSpace=wrap;html=1;" vertex="1" parent="ZEw2Qx3wpyFymtsAg1ht-40">
          <mxGeometry y="208" width="140" height="26" as="geometry" />
        </mxCell>
        <mxCell id="ZEw2Qx3wpyFymtsAg1ht-51" value="頭像" style="ellipse;whiteSpace=wrap;html=1;align=center;" vertex="1" parent="1">
          <mxGeometry x="470" y="-830" width="100" height="40" as="geometry" />
        </mxCell>
        <mxCell id="ZEw2Qx3wpyFymtsAg1ht-52" value="生日" style="ellipse;whiteSpace=wrap;html=1;align=center;" vertex="1" parent="1">
          <mxGeometry x="350" y="-830" width="100" height="40" as="geometry" />
        </mxCell>
        <mxCell id="ZEw2Qx3wpyFymtsAg1ht-54" value="姓名" style="ellipse;whiteSpace=wrap;html=1;align=center;" vertex="1" parent="1">
          <mxGeometry x="220" y="-830" width="100" height="40" as="geometry" />
        </mxCell>
        <mxCell id="ZEw2Qx3wpyFymtsAg1ht-55" value="密碼" style="ellipse;whiteSpace=wrap;html=1;align=center;" vertex="1" parent="1">
          <mxGeometry x="110" y="-730" width="100" height="40" as="geometry" />
        </mxCell>
        <mxCell id="ZEw2Qx3wpyFymtsAg1ht-60" value="地址" style="ellipse;shape=doubleEllipse;margin=3;whiteSpace=wrap;html=1;align=center;" vertex="1" parent="1">
          <mxGeometry x="560" y="-730" width="100" height="40" as="geometry" />
        </mxCell>
        <mxCell id="ZEw2Qx3wpyFymtsAg1ht-61" value="帳號" style="ellipse;whiteSpace=wrap;html=1;align=center;fontStyle=4;" vertex="1" parent="1">
          <mxGeometry x="120" y="-680" width="100" height="40" as="geometry" />
        </mxCell>
        <mxCell id="ZEw2Qx3wpyFymtsAg1ht-62" value="電子郵件" style="ellipse;whiteSpace=wrap;html=1;align=center;fontStyle=4;" vertex="1" parent="1">
          <mxGeometry x="110" y="-780" width="100" height="40" as="geometry" />
        </mxCell>
        <mxCell id="ZEw2Qx3wpyFymtsAg1ht-63" value="電話" style="ellipse;whiteSpace=wrap;html=1;align=center;fontStyle=4;" vertex="1" parent="1">
          <mxGeometry x="550" y="-680" width="100" height="40" as="geometry" />
        </mxCell>
        <mxCell id="ZEw2Qx3wpyFymtsAg1ht-64" value="下訂" style="shape=rhombus;perimeter=rhombusPerimeter;whiteSpace=wrap;html=1;align=center;" vertex="1" parent="1">
          <mxGeometry x="340" y="-650" width="120" height="60" as="geometry" />
        </mxCell>
        <mxCell id="ZEw2Qx3wpyFymtsAg1ht-65" value="訂單" style="whiteSpace=wrap;html=1;align=center;" vertex="1" parent="1">
          <mxGeometry x="350" y="-570" width="100" height="40" as="geometry" />
        </mxCell>
        <mxCell id="ZEw2Qx3wpyFymtsAg1ht-66" value="客戶姓名" style="ellipse;whiteSpace=wrap;html=1;align=center;" vertex="1" parent="1">
          <mxGeometry x="210" y="-604.5" width="100" height="40" as="geometry" />
        </mxCell>
        <mxCell id="ZEw2Qx3wpyFymtsAg1ht-67" value="地址" style="ellipse;whiteSpace=wrap;html=1;align=center;" vertex="1" parent="1">
          <mxGeometry x="480" y="-584" width="100" height="40" as="geometry" />
        </mxCell>
        <mxCell id="ZEw2Qx3wpyFymtsAg1ht-70" value="包含" style="shape=rhombus;perimeter=rhombusPerimeter;whiteSpace=wrap;html=1;align=center;" vertex="1" parent="1">
          <mxGeometry x="340" y="-504.5" width="120" height="60" as="geometry" />
        </mxCell>
        <mxCell id="ZEw2Qx3wpyFymtsAg1ht-72" value="餐點" style="whiteSpace=wrap;html=1;align=center;" vertex="1" parent="1">
          <mxGeometry x="350" y="-410" width="100" height="40" as="geometry" />
        </mxCell>
        <mxCell id="ZEw2Qx3wpyFymtsAg1ht-75" value="餐點名稱" style="ellipse;whiteSpace=wrap;html=1;align=center;" vertex="1" parent="1">
          <mxGeometry x="210" y="-380" width="100" height="40" as="geometry" />
        </mxCell>
        <mxCell id="ZEw2Qx3wpyFymtsAg1ht-76" value="單價" style="ellipse;whiteSpace=wrap;html=1;align=center;" vertex="1" parent="1">
          <mxGeometry x="590" y="-430" width="100" height="40" as="geometry" />
        </mxCell>
        <mxCell id="ZEw2Qx3wpyFymtsAg1ht-77" value="總金額" style="ellipse;whiteSpace=wrap;html=1;align=center;dashed=1;" vertex="1" parent="1">
          <mxGeometry x="590" y="-380" width="100" height="40" as="geometry" />
        </mxCell>
        <mxCell id="ZEw2Qx3wpyFymtsAg1ht-78" value="餐點編號" style="ellipse;whiteSpace=wrap;html=1;align=center;fontStyle=4;" vertex="1" parent="1">
          <mxGeometry x="210" y="-430" width="100" height="40" as="geometry" />
        </mxCell>
        <mxCell id="ZEw2Qx3wpyFymtsAg1ht-79" value="菜單" style="whiteSpace=wrap;html=1;align=center;" vertex="1" parent="1">
          <mxGeometry x="350" y="-270" width="100" height="40" as="geometry" />
        </mxCell>
        <mxCell id="ZEw2Qx3wpyFymtsAg1ht-80" value="包含" style="shape=rhombus;perimeter=rhombusPerimeter;whiteSpace=wrap;html=1;align=center;" vertex="1" parent="1">
          <mxGeometry x="340" y="-350" width="120" height="60" as="geometry" />
        </mxCell>
        <mxCell id="ZEw2Qx3wpyFymtsAg1ht-81" value="餐點編號" style="ellipse;whiteSpace=wrap;html=1;align=center;fontStyle=4;" vertex="1" parent="1">
          <mxGeometry x="210" y="-295" width="100" height="40" as="geometry" />
        </mxCell>
        <mxCell id="ZEw2Qx3wpyFymtsAg1ht-82" value="餐點名稱" style="ellipse;whiteSpace=wrap;html=1;align=center;" vertex="1" parent="1">
          <mxGeometry x="210" y="-245" width="100" height="40" as="geometry" />
        </mxCell>
        <mxCell id="ZEw2Qx3wpyFymtsAg1ht-83" value="單價" style="ellipse;whiteSpace=wrap;html=1;align=center;" vertex="1" parent="1">
          <mxGeometry x="560" y="-250" width="100" height="40" as="geometry" />
        </mxCell>
        <mxCell id="ZEw2Qx3wpyFymtsAg1ht-84" value="敘述" style="ellipse;whiteSpace=wrap;html=1;align=center;" vertex="1" parent="1">
          <mxGeometry x="560" y="-200" width="100" height="40" as="geometry" />
        </mxCell>
        <mxCell id="ZEw2Qx3wpyFymtsAg1ht-85" value="圖片" style="ellipse;whiteSpace=wrap;html=1;align=center;" vertex="1" parent="1">
          <mxGeometry x="560" y="-300" width="100" height="40" as="geometry" />
        </mxCell>
        <mxCell id="XWeFnUBhGMmy-8iYcN8g-1" value="上架" style="shape=rhombus;perimeter=rhombusPerimeter;whiteSpace=wrap;html=1;align=center;" vertex="1" parent="1">
          <mxGeometry x="340" y="-210" width="120" height="60" as="geometry" />
        </mxCell>
        <mxCell id="XWeFnUBhGMmy-8iYcN8g-2" value="餐廳" style="whiteSpace=wrap;html=1;align=center;" vertex="1" parent="1">
          <mxGeometry x="350" y="-130" width="100" height="40" as="geometry" />
        </mxCell>
        <mxCell id="XWeFnUBhGMmy-8iYcN8g-3" value="電子郵件" style="ellipse;whiteSpace=wrap;html=1;align=center;fontStyle=4;" vertex="1" parent="1">
          <mxGeometry x="144" y="-40" width="100" height="40" as="geometry" />
        </mxCell>
        <mxCell id="XWeFnUBhGMmy-8iYcN8g-4" value="店名" style="ellipse;whiteSpace=wrap;html=1;align=center;" vertex="1" parent="1">
          <mxGeometry x="364" y="10" width="100" height="40" as="geometry" />
        </mxCell>
        <mxCell id="XWeFnUBhGMmy-8iYcN8g-5" value="電話" style="ellipse;whiteSpace=wrap;html=1;align=center;" vertex="1" parent="1">
          <mxGeometry x="474" y="10" width="100" height="40" as="geometry" />
        </mxCell>
        <mxCell id="XWeFnUBhGMmy-8iYcN8g-6" value="負責人姓名" style="ellipse;whiteSpace=wrap;html=1;align=center;" vertex="1" parent="1">
          <mxGeometry x="690" y="10" width="100" height="40" as="geometry" />
        </mxCell>
        <mxCell id="XWeFnUBhGMmy-8iYcN8g-7" value="地址" style="ellipse;whiteSpace=wrap;html=1;align=center;" vertex="1" parent="1">
          <mxGeometry x="690" y="-40" width="100" height="40" as="geometry" />
        </mxCell>
        <mxCell id="XWeFnUBhGMmy-8iYcN8g-8" value="營業時間" style="ellipse;whiteSpace=wrap;html=1;align=center;" vertex="1" parent="1">
          <mxGeometry x="584" y="10" width="100" height="40" as="geometry" />
        </mxCell>
        <mxCell id="XWeFnUBhGMmy-8iYcN8g-9" value="統一編號" style="ellipse;whiteSpace=wrap;html=1;align=center;" vertex="1" parent="1">
          <mxGeometry x="690" y="-140" width="100" height="40" as="geometry" />
        </mxCell>
        <mxCell id="XWeFnUBhGMmy-8iYcN8g-10" value="負責人身分證字號" style="ellipse;whiteSpace=wrap;html=1;align=center;" vertex="1" parent="1">
          <mxGeometry x="144" y="10" width="100" height="40" as="geometry" />
        </mxCell>
        <mxCell id="XWeFnUBhGMmy-8iYcN8g-11" value="營業登記名稱" style="ellipse;whiteSpace=wrap;html=1;align=center;" vertex="1" parent="1">
          <mxGeometry x="254" y="10" width="100" height="40" as="geometry" />
        </mxCell>
        <mxCell id="XWeFnUBhGMmy-8iYcN8g-14" value="食品安全登錄字號" style="ellipse;whiteSpace=wrap;html=1;align=center;" vertex="1" parent="1">
          <mxGeometry x="690" y="-90" width="100" height="40" as="geometry" />
        </mxCell>
        <mxCell id="XWeFnUBhGMmy-8iYcN8g-15" value="密碼" style="ellipse;whiteSpace=wrap;html=1;align=center;" vertex="1" parent="1">
          <mxGeometry x="144" y="-90" width="100" height="40" as="geometry" />
        </mxCell>
        <mxCell id="XWeFnUBhGMmy-8iYcN8g-17" value="" style="endArrow=none;html=1;rounded=0;entryX=0;entryY=0.5;entryDx=0;entryDy=0;exitX=1;exitY=0.5;exitDx=0;exitDy=0;" edge="1" parent="1" source="ZEw2Qx3wpyFymtsAg1ht-61" target="ZEw2Qx3wpyFymtsAg1ht-49">
          <mxGeometry relative="1" as="geometry">
            <mxPoint x="120" y="-780" as="sourcePoint" />
            <mxPoint x="280" y="-780" as="targetPoint" />
            <Array as="points" />
          </mxGeometry>
        </mxCell>
        <mxCell id="XWeFnUBhGMmy-8iYcN8g-18" value="" style="endArrow=none;html=1;rounded=0;" edge="1" parent="1" source="ZEw2Qx3wpyFymtsAg1ht-52">
          <mxGeometry relative="1" as="geometry">
            <mxPoint x="370" y="-850" as="sourcePoint" />
            <mxPoint x="400" y="-930" as="targetPoint" />
          </mxGeometry>
        </mxCell>
        <mxCell id="XWeFnUBhGMmy-8iYcN8g-19" value="" style="endArrow=none;html=1;rounded=0;entryX=0;entryY=0.5;entryDx=0;entryDy=0;exitX=1;exitY=0.5;exitDx=0;exitDy=0;" edge="1" parent="1" source="ZEw2Qx3wpyFymtsAg1ht-49" target="ZEw2Qx3wpyFymtsAg1ht-63">
          <mxGeometry relative="1" as="geometry">
            <mxPoint x="450" y="-670" as="sourcePoint" />
            <mxPoint x="730" y="-780" as="targetPoint" />
          </mxGeometry>
        </mxCell>
        <mxCell id="XWeFnUBhGMmy-8iYcN8g-20" value="" style="endArrow=none;html=1;rounded=0;exitX=1;exitY=0.5;exitDx=0;exitDy=0;entryX=0;entryY=0.5;entryDx=0;entryDy=0;" edge="1" parent="1" source="ZEw2Qx3wpyFymtsAg1ht-49" target="ZEw2Qx3wpyFymtsAg1ht-60">
          <mxGeometry relative="1" as="geometry">
            <mxPoint x="370" y="-690" as="sourcePoint" />
            <mxPoint x="570" y="-781" as="targetPoint" />
          </mxGeometry>
        </mxCell>
        <mxCell id="XWeFnUBhGMmy-8iYcN8g-21" value="" style="endArrow=none;html=1;rounded=0;exitX=0;exitY=0.5;exitDx=0;exitDy=0;entryX=1;entryY=0.5;entryDx=0;entryDy=0;" edge="1" parent="1" source="ZEw2Qx3wpyFymtsAg1ht-49" target="ZEw2Qx3wpyFymtsAg1ht-62">
          <mxGeometry relative="1" as="geometry">
            <mxPoint x="370" y="-821" as="sourcePoint" />
            <mxPoint x="530" y="-821" as="targetPoint" />
          </mxGeometry>
        </mxCell>
        <mxCell id="XWeFnUBhGMmy-8iYcN8g-22" value="" style="endArrow=none;html=1;rounded=0;exitX=0.5;exitY=1;exitDx=0;exitDy=0;" edge="1" parent="1" source="ZEw2Qx3wpyFymtsAg1ht-49">
          <mxGeometry relative="1" as="geometry">
            <mxPoint x="440" y="-780" as="sourcePoint" />
            <mxPoint x="400" y="-690" as="targetPoint" />
          </mxGeometry>
        </mxCell>
        <mxCell id="XWeFnUBhGMmy-8iYcN8g-23" value="" style="endArrow=none;html=1;rounded=0;exitX=0.5;exitY=1;exitDx=0;exitDy=0;entryX=0.5;entryY=0;entryDx=0;entryDy=0;" edge="1" parent="1" source="ZEw2Qx3wpyFymtsAg1ht-52" target="ZEw2Qx3wpyFymtsAg1ht-49">
          <mxGeometry relative="1" as="geometry">
            <mxPoint x="360" y="-810" as="sourcePoint" />
            <mxPoint x="400" y="-690" as="targetPoint" />
          </mxGeometry>
        </mxCell>
        <mxCell id="XWeFnUBhGMmy-8iYcN8g-24" value="" style="endArrow=none;html=1;rounded=0;exitX=0.5;exitY=1;exitDx=0;exitDy=0;entryX=0.5;entryY=0;entryDx=0;entryDy=0;" edge="1" parent="1" source="ZEw2Qx3wpyFymtsAg1ht-54" target="ZEw2Qx3wpyFymtsAg1ht-49">
          <mxGeometry relative="1" as="geometry">
            <mxPoint x="280" y="-780" as="sourcePoint" />
            <mxPoint x="400" y="-690" as="targetPoint" />
          </mxGeometry>
        </mxCell>
        <mxCell id="XWeFnUBhGMmy-8iYcN8g-25" value="" style="endArrow=none;html=1;rounded=0;entryX=0;entryY=0.5;entryDx=0;entryDy=0;exitX=1;exitY=0.5;exitDx=0;exitDy=0;" edge="1" parent="1" source="ZEw2Qx3wpyFymtsAg1ht-55" target="ZEw2Qx3wpyFymtsAg1ht-49">
          <mxGeometry relative="1" as="geometry">
            <mxPoint x="200" y="-820" as="sourcePoint" />
            <mxPoint x="360" y="-820" as="targetPoint" />
          </mxGeometry>
        </mxCell>
        <mxCell id="XWeFnUBhGMmy-8iYcN8g-26" value="名" style="ellipse;whiteSpace=wrap;html=1;align=center;" vertex="1" parent="1">
          <mxGeometry x="270" y="-930" width="100" height="40" as="geometry" />
        </mxCell>
        <mxCell id="XWeFnUBhGMmy-8iYcN8g-27" value="姓" style="ellipse;whiteSpace=wrap;html=1;align=center;" vertex="1" parent="1">
          <mxGeometry x="160" y="-930" width="100" height="40" as="geometry" />
        </mxCell>
        <mxCell id="XWeFnUBhGMmy-8iYcN8g-28" value="" style="endArrow=none;html=1;rounded=0;exitX=0.5;exitY=0;exitDx=0;exitDy=0;" edge="1" parent="1" source="ZEw2Qx3wpyFymtsAg1ht-54">
          <mxGeometry relative="1" as="geometry">
            <mxPoint x="280" y="-820" as="sourcePoint" />
            <mxPoint x="330" y="-890" as="targetPoint" />
          </mxGeometry>
        </mxCell>
        <mxCell id="XWeFnUBhGMmy-8iYcN8g-29" value="" style="endArrow=none;html=1;rounded=0;entryX=0.5;entryY=0;entryDx=0;entryDy=0;" edge="1" parent="1" target="ZEw2Qx3wpyFymtsAg1ht-54">
          <mxGeometry relative="1" as="geometry">
            <mxPoint x="210" y="-890" as="sourcePoint" />
            <mxPoint x="370" y="-890" as="targetPoint" />
          </mxGeometry>
        </mxCell>
        <mxCell id="XWeFnUBhGMmy-8iYcN8g-30" value="日" style="ellipse;whiteSpace=wrap;html=1;align=center;" vertex="1" parent="1">
          <mxGeometry x="570" y="-970" width="100" height="40" as="geometry" />
        </mxCell>
        <mxCell id="XWeFnUBhGMmy-8iYcN8g-31" value="年" style="ellipse;whiteSpace=wrap;html=1;align=center;" vertex="1" parent="1">
          <mxGeometry x="350" y="-970" width="100" height="40" as="geometry" />
        </mxCell>
        <mxCell id="XWeFnUBhGMmy-8iYcN8g-32" value="月" style="ellipse;whiteSpace=wrap;html=1;align=center;" vertex="1" parent="1">
          <mxGeometry x="450" y="-970" width="100" height="40" as="geometry" />
        </mxCell>
        <mxCell id="XWeFnUBhGMmy-8iYcN8g-33" value="" style="endArrow=none;html=1;rounded=0;exitX=0.5;exitY=0;exitDx=0;exitDy=0;" edge="1" parent="1" source="ZEw2Qx3wpyFymtsAg1ht-52">
          <mxGeometry relative="1" as="geometry">
            <mxPoint x="370" y="-850" as="sourcePoint" />
            <mxPoint x="500" y="-930" as="targetPoint" />
          </mxGeometry>
        </mxCell>
        <mxCell id="XWeFnUBhGMmy-8iYcN8g-34" value="" style="endArrow=none;html=1;rounded=0;exitX=0.5;exitY=0;exitDx=0;exitDy=0;" edge="1" parent="1" source="ZEw2Qx3wpyFymtsAg1ht-52">
          <mxGeometry relative="1" as="geometry">
            <mxPoint x="600" y="-850" as="sourcePoint" />
            <mxPoint x="626" y="-931" as="targetPoint" />
          </mxGeometry>
        </mxCell>
        <mxCell id="XWeFnUBhGMmy-8iYcN8g-35" value="詳細地址" style="ellipse;whiteSpace=wrap;html=1;align=center;" vertex="1" parent="1">
          <mxGeometry x="700" y="-700" width="100" height="40" as="geometry" />
        </mxCell>
        <mxCell id="XWeFnUBhGMmy-8iYcN8g-36" value="鄉鎮市區" style="ellipse;whiteSpace=wrap;html=1;align=center;" vertex="1" parent="1">
          <mxGeometry x="700" y="-750" width="100" height="40" as="geometry" />
        </mxCell>
        <mxCell id="XWeFnUBhGMmy-8iYcN8g-37" value="縣市" style="ellipse;whiteSpace=wrap;html=1;align=center;" vertex="1" parent="1">
          <mxGeometry x="700" y="-800" width="100" height="40" as="geometry" />
        </mxCell>
        <mxCell id="XWeFnUBhGMmy-8iYcN8g-38" value="" style="endArrow=none;html=1;rounded=0;exitX=1;exitY=0.5;exitDx=0;exitDy=0;entryX=0;entryY=0.5;entryDx=0;entryDy=0;" edge="1" parent="1" source="ZEw2Qx3wpyFymtsAg1ht-60">
          <mxGeometry relative="1" as="geometry">
            <mxPoint x="590" y="-640" as="sourcePoint" />
            <mxPoint x="700" y="-680" as="targetPoint" />
          </mxGeometry>
        </mxCell>
        <mxCell id="XWeFnUBhGMmy-8iYcN8g-39" value="" style="endArrow=none;html=1;rounded=0;exitX=1;exitY=0.5;exitDx=0;exitDy=0;entryX=0;entryY=0.5;entryDx=0;entryDy=0;" edge="1" parent="1" source="ZEw2Qx3wpyFymtsAg1ht-60">
          <mxGeometry relative="1" as="geometry">
            <mxPoint x="590" y="-690" as="sourcePoint" />
            <mxPoint x="700" y="-730" as="targetPoint" />
          </mxGeometry>
        </mxCell>
        <mxCell id="XWeFnUBhGMmy-8iYcN8g-40" value="" style="endArrow=none;html=1;rounded=0;entryX=0;entryY=0.5;entryDx=0;entryDy=0;" edge="1" parent="1">
          <mxGeometry relative="1" as="geometry">
            <mxPoint x="660" y="-710" as="sourcePoint" />
            <mxPoint x="700" y="-780" as="targetPoint" />
          </mxGeometry>
        </mxCell>
        <mxCell id="XWeFnUBhGMmy-8iYcN8g-42" value="詳細地址" style="ellipse;whiteSpace=wrap;html=1;align=center;" vertex="1" parent="1">
          <mxGeometry x="650" y="-530" width="100" height="40" as="geometry" />
        </mxCell>
        <mxCell id="XWeFnUBhGMmy-8iYcN8g-43" value="鄉鎮市區" style="ellipse;whiteSpace=wrap;html=1;align=center;" vertex="1" parent="1">
          <mxGeometry x="650" y="-580" width="100" height="40" as="geometry" />
        </mxCell>
        <mxCell id="XWeFnUBhGMmy-8iYcN8g-44" value="縣市" style="ellipse;whiteSpace=wrap;html=1;align=center;" vertex="1" parent="1">
          <mxGeometry x="650" y="-630" width="100" height="40" as="geometry" />
        </mxCell>
        <mxCell id="XWeFnUBhGMmy-8iYcN8g-45" value="" style="endArrow=none;html=1;rounded=0;exitX=1;exitY=0.5;exitDx=0;exitDy=0;entryX=0;entryY=0.5;entryDx=0;entryDy=0;" edge="1" parent="1" source="ZEw2Qx3wpyFymtsAg1ht-67" target="XWeFnUBhGMmy-8iYcN8g-42">
          <mxGeometry relative="1" as="geometry">
            <mxPoint x="580" y="-540" as="sourcePoint" />
            <mxPoint x="620" y="-510" as="targetPoint" />
          </mxGeometry>
        </mxCell>
        <mxCell id="XWeFnUBhGMmy-8iYcN8g-46" value="" style="endArrow=none;html=1;rounded=0;entryX=0;entryY=0.5;entryDx=0;entryDy=0;exitX=1;exitY=0.5;exitDx=0;exitDy=0;entryPerimeter=0;" edge="1" parent="1" source="ZEw2Qx3wpyFymtsAg1ht-67" target="XWeFnUBhGMmy-8iYcN8g-43">
          <mxGeometry relative="1" as="geometry">
            <mxPoint x="580" y="-540" as="sourcePoint" />
            <mxPoint x="620" y="-560" as="targetPoint" />
          </mxGeometry>
        </mxCell>
        <mxCell id="XWeFnUBhGMmy-8iYcN8g-47" value="" style="endArrow=none;html=1;rounded=0;entryX=0;entryY=0.5;entryDx=0;entryDy=0;exitX=1;exitY=0.5;exitDx=0;exitDy=0;" edge="1" parent="1" source="ZEw2Qx3wpyFymtsAg1ht-67" target="XWeFnUBhGMmy-8iYcN8g-44">
          <mxGeometry relative="1" as="geometry">
            <mxPoint x="580" y="-540" as="sourcePoint" />
            <mxPoint x="620" y="-610" as="targetPoint" />
          </mxGeometry>
        </mxCell>
        <mxCell id="XWeFnUBhGMmy-8iYcN8g-48" value="" style="endArrow=none;html=1;rounded=0;exitX=1;exitY=0.5;exitDx=0;exitDy=0;entryX=0;entryY=0.5;entryDx=0;entryDy=0;" edge="1" parent="1" source="ZEw2Qx3wpyFymtsAg1ht-65" target="ZEw2Qx3wpyFymtsAg1ht-67">
          <mxGeometry relative="1" as="geometry">
            <mxPoint x="460" y="-530" as="sourcePoint" />
            <mxPoint x="610" y="-535" as="targetPoint" />
          </mxGeometry>
        </mxCell>
        <mxCell id="XWeFnUBhGMmy-8iYcN8g-50" value="" style="endArrow=none;html=1;rounded=0;exitX=1;exitY=0.5;exitDx=0;exitDy=0;entryX=0;entryY=0.5;entryDx=0;entryDy=0;" edge="1" parent="1" source="ZEw2Qx3wpyFymtsAg1ht-66" target="ZEw2Qx3wpyFymtsAg1ht-65">
          <mxGeometry relative="1" as="geometry">
            <mxPoint x="460" y="-524" as="sourcePoint" />
            <mxPoint x="330" y="-520" as="targetPoint" />
          </mxGeometry>
        </mxCell>
        <mxCell id="XWeFnUBhGMmy-8iYcN8g-51" value="" style="endArrow=none;html=1;rounded=0;exitX=0.5;exitY=0;exitDx=0;exitDy=0;" edge="1" parent="1" source="ZEw2Qx3wpyFymtsAg1ht-64" target="ZEw2Qx3wpyFymtsAg1ht-49">
          <mxGeometry relative="1" as="geometry">
            <mxPoint x="240" y="-650" as="sourcePoint" />
            <mxPoint x="400" y="-650" as="targetPoint" />
          </mxGeometry>
        </mxCell>
        <mxCell id="XWeFnUBhGMmy-8iYcN8g-52" value="" style="endArrow=none;html=1;rounded=0;entryX=0.5;entryY=1;entryDx=0;entryDy=0;exitX=0.5;exitY=0;exitDx=0;exitDy=0;" edge="1" parent="1" source="ZEw2Qx3wpyFymtsAg1ht-65" target="ZEw2Qx3wpyFymtsAg1ht-64">
          <mxGeometry relative="1" as="geometry">
            <mxPoint x="350" y="-570" as="sourcePoint" />
            <mxPoint x="510" y="-570" as="targetPoint" />
          </mxGeometry>
        </mxCell>
        <mxCell id="XWeFnUBhGMmy-8iYcN8g-53" value="數量" style="ellipse;whiteSpace=wrap;html=1;align=center;" vertex="1" parent="1">
          <mxGeometry x="490" y="-520" width="100" height="40" as="geometry" />
        </mxCell>
        <mxCell id="XWeFnUBhGMmy-8iYcN8g-54" value="" style="endArrow=none;html=1;rounded=0;entryX=1;entryY=0.5;entryDx=0;entryDy=0;exitX=0;exitY=0.5;exitDx=0;exitDy=0;" edge="1" parent="1" source="XWeFnUBhGMmy-8iYcN8g-53" target="ZEw2Qx3wpyFymtsAg1ht-70">
          <mxGeometry relative="1" as="geometry">
            <mxPoint x="480" y="-460" as="sourcePoint" />
            <mxPoint x="460" y="-460" as="targetPoint" />
          </mxGeometry>
        </mxCell>
        <mxCell id="XWeFnUBhGMmy-8iYcN8g-55" value="" style="endArrow=none;html=1;rounded=0;entryX=0.5;entryY=1;entryDx=0;entryDy=0;" edge="1" parent="1" source="ZEw2Qx3wpyFymtsAg1ht-70" target="ZEw2Qx3wpyFymtsAg1ht-65">
          <mxGeometry relative="1" as="geometry">
            <mxPoint x="410" y="-620" as="sourcePoint" />
            <mxPoint x="410" y="-640" as="targetPoint" />
          </mxGeometry>
        </mxCell>
        <mxCell id="XWeFnUBhGMmy-8iYcN8g-56" value="" style="endArrow=none;html=1;rounded=0;entryX=0.5;entryY=0;entryDx=0;entryDy=0;exitX=0.5;exitY=1;exitDx=0;exitDy=0;" edge="1" parent="1" source="ZEw2Qx3wpyFymtsAg1ht-70" target="ZEw2Qx3wpyFymtsAg1ht-72">
          <mxGeometry relative="1" as="geometry">
            <mxPoint x="410" y="-544" as="sourcePoint" />
            <mxPoint x="410" y="-560" as="targetPoint" />
          </mxGeometry>
        </mxCell>
        <mxCell id="XWeFnUBhGMmy-8iYcN8g-59" value="備註" style="ellipse;whiteSpace=wrap;html=1;align=center;" vertex="1" parent="1">
          <mxGeometry x="210" y="-560" width="100" height="40" as="geometry" />
        </mxCell>
        <mxCell id="XWeFnUBhGMmy-8iYcN8g-60" value="" style="endArrow=none;html=1;rounded=0;entryX=0;entryY=0.5;entryDx=0;entryDy=0;exitX=1;exitY=0.5;exitDx=0;exitDy=0;" edge="1" parent="1" source="XWeFnUBhGMmy-8iYcN8g-59" target="ZEw2Qx3wpyFymtsAg1ht-65">
          <mxGeometry relative="1" as="geometry">
            <mxPoint x="110" y="-460.5" as="sourcePoint" />
            <mxPoint x="270" y="-460.5" as="targetPoint" />
          </mxGeometry>
        </mxCell>
        <mxCell id="XWeFnUBhGMmy-8iYcN8g-61" value="" style="endArrow=none;html=1;rounded=0;exitX=1;exitY=0.5;exitDx=0;exitDy=0;entryX=0;entryY=0.5;entryDx=0;entryDy=0;" edge="1" parent="1" source="ZEw2Qx3wpyFymtsAg1ht-78" target="ZEw2Qx3wpyFymtsAg1ht-72">
          <mxGeometry relative="1" as="geometry">
            <mxPoint x="310" y="-400.5" as="sourcePoint" />
            <mxPoint x="470" y="-400.5" as="targetPoint" />
          </mxGeometry>
        </mxCell>
        <mxCell id="XWeFnUBhGMmy-8iYcN8g-62" value="" style="endArrow=none;html=1;rounded=0;exitX=1;exitY=0.5;exitDx=0;exitDy=0;entryX=0;entryY=0.5;entryDx=0;entryDy=0;" edge="1" parent="1" source="ZEw2Qx3wpyFymtsAg1ht-75" target="ZEw2Qx3wpyFymtsAg1ht-72">
          <mxGeometry relative="1" as="geometry">
            <mxPoint x="350" y="-370" as="sourcePoint" />
            <mxPoint x="510" y="-370" as="targetPoint" />
          </mxGeometry>
        </mxCell>
        <mxCell id="XWeFnUBhGMmy-8iYcN8g-63" value="" style="endArrow=none;html=1;rounded=0;entryX=0;entryY=0.5;entryDx=0;entryDy=0;exitX=1;exitY=0.5;exitDx=0;exitDy=0;" edge="1" parent="1" source="ZEw2Qx3wpyFymtsAg1ht-72" target="ZEw2Qx3wpyFymtsAg1ht-76">
          <mxGeometry relative="1" as="geometry">
            <mxPoint x="450" y="-390" as="sourcePoint" />
            <mxPoint x="510" y="-370" as="targetPoint" />
          </mxGeometry>
        </mxCell>
        <mxCell id="XWeFnUBhGMmy-8iYcN8g-64" value="" style="endArrow=none;html=1;rounded=0;entryX=0;entryY=0.5;entryDx=0;entryDy=0;exitX=1;exitY=0.5;exitDx=0;exitDy=0;" edge="1" parent="1" source="ZEw2Qx3wpyFymtsAg1ht-72" target="ZEw2Qx3wpyFymtsAg1ht-77">
          <mxGeometry relative="1" as="geometry">
            <mxPoint x="350" y="-370" as="sourcePoint" />
            <mxPoint x="510" y="-370" as="targetPoint" />
          </mxGeometry>
        </mxCell>
        <mxCell id="XWeFnUBhGMmy-8iYcN8g-65" value="" style="endArrow=none;html=1;rounded=0;exitX=0.5;exitY=0;exitDx=0;exitDy=0;entryX=0.5;entryY=1;entryDx=0;entryDy=0;" edge="1" parent="1" source="ZEw2Qx3wpyFymtsAg1ht-80" target="ZEw2Qx3wpyFymtsAg1ht-72">
          <mxGeometry relative="1" as="geometry">
            <mxPoint x="350" y="-370" as="sourcePoint" />
            <mxPoint x="510" y="-370" as="targetPoint" />
          </mxGeometry>
        </mxCell>
        <mxCell id="XWeFnUBhGMmy-8iYcN8g-66" value="" style="endArrow=none;html=1;rounded=0;exitX=0.5;exitY=1;exitDx=0;exitDy=0;entryX=0.5;entryY=0;entryDx=0;entryDy=0;" edge="1" parent="1" source="ZEw2Qx3wpyFymtsAg1ht-80" target="ZEw2Qx3wpyFymtsAg1ht-79">
          <mxGeometry relative="1" as="geometry">
            <mxPoint x="350" y="-370" as="sourcePoint" />
            <mxPoint x="510" y="-370" as="targetPoint" />
          </mxGeometry>
        </mxCell>
        <mxCell id="XWeFnUBhGMmy-8iYcN8g-67" value="折扣" style="ellipse;whiteSpace=wrap;html=1;align=center;" vertex="1" parent="1">
          <mxGeometry x="490" y="-470" width="100" height="40" as="geometry" />
        </mxCell>
        <mxCell id="XWeFnUBhGMmy-8iYcN8g-68" value="" style="endArrow=none;html=1;rounded=0;exitX=0.5;exitY=1;exitDx=0;exitDy=0;entryX=0.5;entryY=0;entryDx=0;entryDy=0;" edge="1" parent="1" source="ZEw2Qx3wpyFymtsAg1ht-51" target="ZEw2Qx3wpyFymtsAg1ht-49">
          <mxGeometry relative="1" as="geometry">
            <mxPoint x="520" y="-790" as="sourcePoint" />
            <mxPoint x="400" y="-690" as="targetPoint" />
          </mxGeometry>
        </mxCell>
        <mxCell id="ZEw2Qx3wpyFymtsAg1ht-49" value="顧客" style="whiteSpace=wrap;html=1;align=center;" vertex="1" parent="1">
          <mxGeometry x="350" y="-710" width="100" height="40" as="geometry" />
        </mxCell>
        <mxCell id="XWeFnUBhGMmy-8iYcN8g-69" value="" style="endArrow=none;html=1;rounded=0;exitX=1;exitY=0.5;exitDx=0;exitDy=0;entryX=0;entryY=0.5;entryDx=0;entryDy=0;" edge="1" parent="1" source="ZEw2Qx3wpyFymtsAg1ht-70" target="XWeFnUBhGMmy-8iYcN8g-67">
          <mxGeometry relative="1" as="geometry">
            <mxPoint x="350" y="-570" as="sourcePoint" />
            <mxPoint x="510" y="-570" as="targetPoint" />
          </mxGeometry>
        </mxCell>
        <mxCell id="XWeFnUBhGMmy-8iYcN8g-70" value="" style="endArrow=none;html=1;rounded=0;exitX=0.5;exitY=1;exitDx=0;exitDy=0;entryX=0.5;entryY=0;entryDx=0;entryDy=0;" edge="1" parent="1" source="ZEw2Qx3wpyFymtsAg1ht-79" target="XWeFnUBhGMmy-8iYcN8g-1">
          <mxGeometry relative="1" as="geometry">
            <mxPoint x="350" y="-270" as="sourcePoint" />
            <mxPoint x="510" y="-270" as="targetPoint" />
          </mxGeometry>
        </mxCell>
        <mxCell id="XWeFnUBhGMmy-8iYcN8g-71" value="" style="endArrow=none;html=1;rounded=0;exitX=0;exitY=0.5;exitDx=0;exitDy=0;entryX=1;entryY=0.5;entryDx=0;entryDy=0;" edge="1" parent="1" source="ZEw2Qx3wpyFymtsAg1ht-79" target="ZEw2Qx3wpyFymtsAg1ht-82">
          <mxGeometry relative="1" as="geometry">
            <mxPoint x="350" y="-270" as="sourcePoint" />
            <mxPoint x="510" y="-270" as="targetPoint" />
          </mxGeometry>
        </mxCell>
        <mxCell id="XWeFnUBhGMmy-8iYcN8g-72" value="" style="endArrow=none;html=1;rounded=0;exitX=0;exitY=0.5;exitDx=0;exitDy=0;entryX=1;entryY=0.5;entryDx=0;entryDy=0;" edge="1" parent="1" source="ZEw2Qx3wpyFymtsAg1ht-79" target="ZEw2Qx3wpyFymtsAg1ht-81">
          <mxGeometry relative="1" as="geometry">
            <mxPoint x="350" y="-270" as="sourcePoint" />
            <mxPoint x="510" y="-270" as="targetPoint" />
          </mxGeometry>
        </mxCell>
        <mxCell id="XWeFnUBhGMmy-8iYcN8g-73" value="" style="endArrow=none;html=1;rounded=0;exitX=1;exitY=0.5;exitDx=0;exitDy=0;entryX=0;entryY=0.5;entryDx=0;entryDy=0;" edge="1" parent="1" source="ZEw2Qx3wpyFymtsAg1ht-79" target="ZEw2Qx3wpyFymtsAg1ht-83">
          <mxGeometry relative="1" as="geometry">
            <mxPoint x="350" y="-270" as="sourcePoint" />
            <mxPoint x="510" y="-270" as="targetPoint" />
          </mxGeometry>
        </mxCell>
        <mxCell id="XWeFnUBhGMmy-8iYcN8g-74" value="" style="endArrow=none;html=1;rounded=0;entryX=0;entryY=0.5;entryDx=0;entryDy=0;exitX=1;exitY=0.5;exitDx=0;exitDy=0;" edge="1" parent="1" source="ZEw2Qx3wpyFymtsAg1ht-79" target="ZEw2Qx3wpyFymtsAg1ht-85">
          <mxGeometry relative="1" as="geometry">
            <mxPoint x="350" y="-270" as="sourcePoint" />
            <mxPoint x="510" y="-270" as="targetPoint" />
          </mxGeometry>
        </mxCell>
        <mxCell id="XWeFnUBhGMmy-8iYcN8g-75" value="" style="endArrow=none;html=1;rounded=0;exitX=1;exitY=0.5;exitDx=0;exitDy=0;entryX=0;entryY=0.5;entryDx=0;entryDy=0;" edge="1" parent="1" source="ZEw2Qx3wpyFymtsAg1ht-79" target="ZEw2Qx3wpyFymtsAg1ht-84">
          <mxGeometry relative="1" as="geometry">
            <mxPoint x="350" y="-270" as="sourcePoint" />
            <mxPoint x="510" y="-270" as="targetPoint" />
          </mxGeometry>
        </mxCell>
        <mxCell id="m4ZGQ-IaVE6KvLMSNc3O-1" value="" style="endArrow=none;html=1;rounded=0;entryX=0.5;entryY=0;entryDx=0;entryDy=0;" edge="1" parent="1" source="XWeFnUBhGMmy-8iYcN8g-1" target="XWeFnUBhGMmy-8iYcN8g-2">
          <mxGeometry relative="1" as="geometry">
            <mxPoint x="410" y="-220" as="sourcePoint" />
            <mxPoint x="410" y="-200" as="targetPoint" />
          </mxGeometry>
        </mxCell>
      </root>
    </mxGraphModel>
  </diagram>
</mxfile>
